<svg width="90" height="90" viewBox="0 0 90 90" fill="none" xmlns="http://www.w3.org/2000/svg">
<circle cx="38" cy="38" r="30" stroke="#4D4D4D" stroke-width="2"/>
<circle cx="38" cy="38" r="25" stroke="#4D4D4D" stroke-width="2"/>
<path d="M38 27.9998C31.5864 27.9998 26.0004 32.028 23 37.9999C26.0004 43.9729 31.5864 48 38 48C44.4136 48 49.9996 43.9729 53 37.9999C49.9996 32.028 44.4136 27.9998 38 27.9998ZM38 44.25C34.5477 44.25 31.7499 41.4521 31.7499 37.9999C31.7499 34.5476 34.5477 31.7498 38 31.7498C41.4523 31.7498 44.2501 34.5476 44.2501 37.9999C44.2501 41.4521 41.4523 44.25 38 44.25Z" fill="#0E46CA"/>
<path d="M38 41.75C40.0711 41.75 41.75 40.0711 41.75 38C41.75 35.9289 40.0711 34.25 38 34.25C35.9289 34.25 34.25 35.9289 34.25 38C34.25 40.0711 35.9289 41.75 38 41.75Z" fill="#0E46CA"/>
<path d="M59.5348 66.6061L67.9593 58.1838L67.9603 58.1849L67.9751 58.1996L67.99 58.2145L68.005 58.2295L68.0202 58.2447L68.0355 58.26L68.0509 58.2755L68.0665 58.291L68.0822 58.3068L68.0981 58.3226L68.1141 58.3386L68.1302 58.3548L68.1464 58.371L68.1628 58.3874L68.1794 58.404L68.196 58.4206L68.2129 58.4375L68.2298 58.4544L68.2469 58.4715L68.2641 58.4887L68.2814 58.506L68.2989 58.5235L68.3165 58.5411L68.3342 58.5588L68.3521 58.5767L68.3701 58.5947L68.3882 58.6128L68.4065 58.6311L68.4248 58.6495L68.4434 58.668L68.462 58.6867L68.4808 58.7054L68.4997 58.7244L68.5187 58.7434L68.5379 58.7626L68.5572 58.7818L68.5766 58.8013L68.5961 58.8208L68.6158 58.8405L68.6356 58.8603L68.6555 58.8802L68.6755 58.9002L68.6957 58.9204L68.716 58.9407L68.7364 58.9611L68.7569 58.9817L68.7776 59.0023L68.7984 59.0231L68.8193 59.044L68.8403 59.065L68.8614 59.0862L68.8827 59.1075L68.9041 59.1289L68.9256 59.1504L68.9472 59.172L68.969 59.1938L68.9908 59.2156L69.0128 59.2376L69.0349 59.2597L69.0571 59.282L69.0795 59.3043L69.1019 59.3268L69.1245 59.3494L69.1472 59.3721L69.17 59.3949L69.1929 59.4178L69.216 59.4408L69.2391 59.464L69.2624 59.4873L69.2858 59.5107L69.3093 59.5342L69.3329 59.5578L69.3566 59.5815L69.3804 59.6053L69.4044 59.6293L69.4284 59.6534L69.4526 59.6775L69.4769 59.7018L69.5013 59.7262L69.5258 59.7507L69.5504 59.7754L69.5751 59.8001L69.6 59.8249L69.6249 59.8499L69.65 59.8749L69.6751 59.9001L69.7004 59.9254L69.7257 59.9507L69.7512 59.9762L69.7768 60.0018L69.8025 60.0275L69.8283 60.0533L69.8542 60.0792L69.8802 60.1052L69.9063 60.1314L69.9325 60.1576L69.9589 60.1839L69.9853 60.2103L70.0118 60.2369L70.0385 60.2635L70.0652 60.2903L70.092 60.3171L70.119 60.344L70.146 60.3711L70.1731 60.3982L70.2004 60.4255L70.2277 60.4528L70.2552 60.4803L70.2827 60.5078L70.3103 60.5355L70.3381 60.5632L70.3659 60.5911L70.3938 60.619L70.4219 60.647L70.45 60.6752L70.4782 60.7034L70.5065 60.7317L70.5349 60.7601L70.5635 60.7887L70.5921 60.8173L70.6208 60.846L70.6496 60.8748L70.6784 60.9037L70.7074 60.9327L70.7365 60.9618L70.7657 60.9909L70.7949 61.0202L70.8243 61.0496L70.8537 61.079L70.8833 61.1086L70.9129 61.1382L70.9426 61.1679L70.9724 61.1977L71.0023 61.2276L71.0323 61.2576L71.0624 61.2877L71.0926 61.3179L71.1228 61.3482L71.1532 61.3785L71.1836 61.409L71.2141 61.4395L71.2447 61.4701L71.2754 61.5008L71.3062 61.5316L71.337 61.5624L71.368 61.5934L71.399 61.6244L71.4301 61.6556L71.4613 61.6868L71.4926 61.7181L71.524 61.7494L71.5554 61.7809L71.587 61.8124L71.6186 61.8441L71.6503 61.8758L71.6821 61.9075L71.7139 61.9394L71.7459 61.9714L71.7779 62.0034L71.81 62.0355L71.8422 62.0677L71.8744 62.1L71.9068 62.1323L71.9392 62.1647L71.9717 62.1972L72.0042 62.2298L72.0369 62.2625L72.0696 62.2952L72.1024 62.328L72.1353 62.3609L72.1682 62.3939L72.2013 62.4269L72.2344 62.46L72.2676 62.4932L72.3008 62.5265L72.3341 62.5598L72.3675 62.5932L72.401 62.6267L72.4346 62.6602L72.4682 62.6939L72.5019 62.7276L72.5356 62.7613L72.5695 62.7952L72.6034 62.8291L72.6373 62.8631L72.6714 62.8971L72.7055 62.9313L72.7397 62.9655L72.7739 62.9997L72.8083 63.034L72.8427 63.0684L72.8771 63.1029L72.9116 63.1374L72.9462 63.172L72.9809 63.2067L73.0156 63.2414L73.0504 63.2762L73.0853 63.3111L73.1202 63.346L73.1552 63.381L73.1902 63.4161L73.2253 63.4512L73.2605 63.4864L73.2957 63.5216L73.331 63.557L73.3664 63.5923L73.4018 63.6278L73.4373 63.6633L73.4729 63.6988L73.5085 63.7344L73.5442 63.7701L73.5799 63.8059L73.6157 63.8417L73.6515 63.8775L73.6874 63.9134L73.7234 63.9494L73.7594 63.9855L73.7955 64.0215L73.8317 64.0577L73.8679 64.0939L73.9041 64.1302L73.9404 64.1665L73.9768 64.2029L74.0132 64.2393L74.0497 64.2758L74.0862 64.3123L74.1228 64.3489L74.1595 64.3856L74.1961 64.4223L74.2329 64.459L74.2697 64.4959L74.3066 64.5327L74.3435 64.5696L74.3804 64.6066L74.4174 64.6436L74.4545 64.6807L74.4916 64.7178L74.5288 64.755L74.566 64.7922L74.6032 64.8295L74.6405 64.8668L74.6779 64.9042L74.7153 64.9416L74.7528 64.979L74.7903 65.0165L74.8278 65.0541L74.8654 65.0917L74.903 65.1294L74.9407 65.1671L74.9785 65.2048L75.0162 65.2426L75.0541 65.2804L75.0919 65.3183L75.1298 65.3562L75.1678 65.3942L75.2058 65.4322L75.2438 65.4702L75.2819 65.5083L75.3201 65.5465L75.3582 65.5847L75.3964 65.6229L75.4347 65.6611L75.473 65.6994L75.5113 65.7378L75.5497 65.7762L75.5881 65.8146L75.6265 65.853L75.665 65.8915L75.7036 65.9301L75.7421 65.9687L75.7807 66.0073L75.8194 66.0459L75.858 66.0846L75.8968 66.1233L75.9355 66.1621L75.9743 66.2009L76.0131 66.2397L76.052 66.2786L76.0909 66.3175L76.1298 66.3564L76.1688 66.3954L76.2077 66.4344L76.2468 66.4734L76.2858 66.5125L76.3249 66.5516L76.364 66.5907L76.4032 66.6299L76.4424 66.6691L76.4816 66.7083L76.5208 66.7476L76.5601 66.7869L76.5994 66.8262L76.6388 66.8655L76.6781 66.9049L76.7175 66.9443L76.7569 66.9837L76.7964 67.0232L76.8359 67.0627L76.8754 67.1022L76.9149 67.1417L76.9545 67.1813L76.994 67.2209L77.0336 67.2605L77.0733 67.3002L77.1129 67.3398L77.1526 67.3795L77.1923 67.4192L77.2321 67.459L77.2718 67.4987L77.3116 67.5385L77.3514 67.5783L77.3912 67.6182L77.431 67.658L77.4709 67.6979L77.5108 67.7378L77.5507 67.7777L77.5906 67.8176L77.6305 67.8576L77.6705 67.8975L77.7105 67.9375L77.7505 67.9775L77.7905 68.0176L77.8305 68.0576L77.8706 68.0977L77.9107 68.1378L77.9508 68.1779L77.9909 68.218L78.031 68.2581L78.0711 68.2983L78.1113 68.3384L78.1514 68.3786L78.1916 68.4188L78.2318 68.459L78.272 68.4992L78.3122 68.5394L78.3525 68.5797L78.3927 68.6199L78.433 68.6602L78.4732 68.7005L78.5135 68.7408L78.5538 68.7811L78.5941 68.8214L78.6344 68.8617L78.6747 68.902L78.7151 68.9424L78.7554 68.9827L78.7958 69.0231L78.8361 69.0635L78.8765 69.1038L78.9169 69.1442L78.9572 69.1846L78.9976 69.225L79.038 69.2654L79.0784 69.3058L79.1188 69.3462L79.1592 69.3867L79.1997 69.4271L79.2401 69.4675L79.2805 69.508L79.3209 69.5484L79.3614 69.5888L79.4018 69.6293L79.4422 69.6697L79.4827 69.7102L79.5231 69.7506L79.5636 69.7911L79.604 69.8315L79.6444 69.872L79.6849 69.9124L79.7253 69.9529L79.7658 69.9933L79.8062 70.0338L79.8467 70.0743L79.8871 70.1147L79.9275 70.1552L79.968 70.1956L80.0084 70.236L80.0488 70.2765L80.0893 70.3169L80.1297 70.3574L80.1701 70.3978L80.2105 70.4382L80.2509 70.4786L80.2913 70.519L80.3317 70.5594L80.3721 70.5998L80.4125 70.6402L80.4529 70.6806L80.4933 70.721L80.5336 70.7614L80.574 70.8018L80.6143 70.8421L80.6547 70.8825L80.695 70.9228L80.7353 70.9631L80.7756 71.0034L80.8159 71.0437L80.8562 71.084L80.8965 71.1243L80.9367 71.1646L80.977 71.2049L81.0172 71.2451L81.0575 71.2854L81.0977 71.3256L81.1379 71.3658L81.1781 71.406L81.2182 71.4462L81.2584 71.4864L81.2985 71.5265L81.3387 71.5666L81.3788 71.6068L81.4189 71.6469L81.459 71.687L81.499 71.727L81.5391 71.7671L81.5791 71.8071L81.6191 71.8472L81.6591 71.8872L81.6991 71.9271L81.739 71.9671C83.2609 73.4894 83.8028 75.1175 83.7444 76.5932C83.6852 78.0899 83.0043 79.5141 81.9328 80.5854C80.8612 81.6566 79.4369 82.3371 77.9401 82.396C76.4644 82.454 74.8364 81.9117 73.3146 80.3894L73.2746 80.3495L73.2346 80.3095L73.1946 80.2695L73.1546 80.2294L73.1146 80.1894L73.0745 80.1494L73.0345 80.1093L72.9944 80.0692L72.9543 80.0291L72.9142 79.989L72.8741 79.9488L72.8339 79.9087L72.7938 79.8685L72.7536 79.8283L72.7134 79.7881L72.6732 79.7479L72.633 79.7077L72.5928 79.6674L72.5525 79.6272L72.5123 79.5869L72.472 79.5466L72.4317 79.5064L72.3914 79.4661L72.3511 79.4258L72.3108 79.3854L72.2705 79.3451L72.2302 79.3048L72.1898 79.2644L72.1495 79.2241L72.1091 79.1837L72.0688 79.1433L72.0284 79.1029L71.988 79.0626L71.9476 79.0222L71.9073 78.9818L71.8669 78.9413L71.8265 78.9009L71.786 78.8605L71.7456 78.8201L71.7052 78.7797L71.6648 78.7392L71.6244 78.6988L71.5839 78.6584L71.5435 78.6179L71.5031 78.5775L71.4626 78.537L71.4222 78.4966L71.3817 78.4561L71.3413 78.4157L71.3009 78.3752L71.2604 78.3347L71.22 78.2943L71.1795 78.2538L71.1391 78.2134L71.0986 78.1729L71.0582 78.1325L71.0178 78.092L70.9773 78.0516L70.9369 78.0111L70.8965 77.9707L70.856 77.9303L70.8156 77.8898L70.7752 77.8494L70.7348 77.809L70.6944 77.7685L70.654 77.7281L70.6136 77.6877L70.5732 77.6473L70.5328 77.6069L70.4924 77.5665L70.452 77.5261L70.4117 77.4858L70.3713 77.4454L70.3309 77.405L70.2906 77.3647L70.2503 77.3243L70.2099 77.284L70.1696 77.2437L70.1293 77.2034L70.089 77.1631L70.0488 77.1228L70.0085 77.0825L69.9682 77.0422L69.928 77.002L69.8878 76.9617L69.8475 76.9215L69.8073 76.8813L69.7671 76.8411L69.727 76.8009L69.6868 76.7607L69.6466 76.7206L69.6065 76.6804L69.5664 76.6403L69.5263 76.6002L69.4862 76.5601L69.4461 76.52L69.4061 76.4799L69.366 76.4399L69.326 76.3999L69.286 76.3598L69.246 76.3199L69.2061 76.2799L69.1661 76.2399L69.1262 76.2L69.0863 76.1601L69.0464 76.1202L69.0066 76.0803L68.9667 76.0405L68.9269 76.0006L68.8871 75.9608L68.8473 75.921L68.8076 75.8813L68.7678 75.8415L68.7281 75.8018L68.6885 75.7621L68.6488 75.7225L68.6092 75.6828L68.5696 75.6432L68.53 75.6036L68.4904 75.564L68.4509 75.5245L68.4114 75.485L68.3719 75.4455L68.3325 75.4061L68.293 75.3666L68.2537 75.3272L68.2143 75.2878L68.175 75.2485L68.1356 75.2092L68.0964 75.1699L68.0571 75.1306L68.0179 75.0914L67.9787 75.0522L67.9396 75.0131L67.9004 74.9739L67.8614 74.9348L67.8223 74.8957L67.7833 74.8567L67.7443 74.8177L67.7053 74.7787L67.6664 74.7398L67.6275 74.7009L67.5886 74.662L67.5498 74.6232L67.511 74.5844L67.4723 74.5456L67.4336 74.5069L67.3949 74.4682L67.3563 74.4296L67.3177 74.391L67.2791 74.3524L67.2406 74.3139L67.2021 74.2754L67.1636 74.2369L67.1252 74.1985L67.0868 74.1601L67.0485 74.1218L67.0102 74.0834L66.972 74.0452L66.9337 74.007L66.8956 73.9688L66.8574 73.9307L66.8194 73.8926L66.7813 73.8545L66.7433 73.8165L66.7054 73.7785L66.6675 73.7406L66.6296 73.7027L66.5918 73.6649L66.554 73.6271L66.5162 73.5894L66.4786 73.5517L66.4409 73.514L66.4033 73.4764L66.3658 73.4389L66.3283 73.4013L66.2908 73.3639L66.2534 73.3265L66.2161 73.2891L66.1787 73.2518L66.1415 73.2145L66.1043 73.1773L66.0671 73.1401L66.03 73.103L65.9929 73.0659L65.9559 73.0289L65.919 72.9919L65.8821 72.955L65.8452 72.9182L65.8084 72.8814L65.7717 72.8446L65.735 72.8079L65.6983 72.7712L65.6617 72.7346L65.6252 72.6981L65.5887 72.6616L65.5523 72.6252L65.5159 72.5888L65.4796 72.5525L65.4434 72.5162L65.4072 72.48L65.371 72.4439L65.335 72.4078L65.2989 72.3717L65.263 72.3358L65.227 72.2998L65.1912 72.264L65.1554 72.2282L65.1197 72.1924L65.084 72.1568L65.0484 72.1211L65.0128 72.0856L64.9774 72.0501L64.9419 72.0146L64.9066 71.9793L64.8713 71.944L64.836 71.9087L64.8008 71.8735L64.7657 71.8384L64.7307 71.8033L64.6957 71.7683L64.6608 71.7334L64.6259 71.6986L64.5911 71.6638L64.5564 71.629L64.5217 71.5944L64.4872 71.5598L64.4526 71.5252L64.4182 71.4908L64.3838 71.4564L64.3495 71.422L64.3152 71.3878L64.281 71.3536L64.2469 71.3194L64.2129 71.2854L64.1789 71.2514L64.145 71.2175L64.1112 71.1837L64.0774 71.1499L64.0437 71.1162L64.0101 71.0826L63.9765 71.049L63.9431 71.0155L63.9097 70.9821L63.8763 70.9488L63.8431 70.9155L63.8099 70.8823L63.7768 70.8492L63.7438 70.8162L63.7108 70.7832L63.6779 70.7503L63.6451 70.7175L63.6124 70.6848L63.5798 70.6521L63.5472 70.6195L63.5147 70.587L63.4823 70.5546L63.4499 70.5223L63.4177 70.49L63.3855 70.4578L63.3534 70.4257L63.3214 70.3937L63.2894 70.3617L63.2576 70.3299L63.2258 70.2981L63.1941 70.2664L63.1625 70.2347L63.131 70.2032L63.0995 70.1717L63.0681 70.1404L63.0369 70.1091L63.0057 70.0779L62.9745 70.0467L62.9435 70.0157L62.9126 69.9847L62.8817 69.9539L62.8509 69.9231L62.8202 69.8924L62.7896 69.8618L62.7591 69.8313L62.7287 69.8008L62.6983 69.7705L62.6681 69.7402L62.6379 69.71L62.6078 69.68L62.5779 69.65L62.548 69.6201L62.5181 69.5902L62.4884 69.5605L62.4588 69.5309L62.4293 69.5013L62.3998 69.4719L62.3705 69.4425L62.3412 69.4132L62.312 69.3841L62.283 69.355L62.254 69.326L62.2251 69.2971L62.1963 69.2683L62.1676 69.2396L62.139 69.211L62.1105 69.1825L62.0821 69.154L62.0537 69.1257L62.0255 69.0975L61.9974 69.0693L61.9694 69.0413L61.9414 69.0134L61.9136 68.9855L61.8859 68.9578L61.8582 68.9301L61.8307 68.9026L61.8032 68.8751L61.7759 68.8478L61.7487 68.8205L61.7215 68.7934L61.6945 68.7664L61.6675 68.7394L61.6407 68.7126L61.614 68.6858L61.5873 68.6592L61.5608 68.6327L61.5344 68.6062L61.5081 68.5799L61.4819 68.5537L61.4557 68.5276L61.4297 68.5015L61.4038 68.4756L61.378 68.4498L61.3523 68.4241L61.3268 68.3985L61.3013 68.373L61.2759 68.3477L61.2506 68.3224L61.2255 68.2972L61.2004 68.2722L61.1755 68.2472L61.1507 68.2224L61.1259 68.1977L61.1013 68.173L61.0768 68.1485L61.0524 68.1241L61.0281 68.0998L61.004 68.0757L60.9799 68.0516L60.956 68.0277L60.9321 68.0038L60.9084 67.9801L60.8848 67.9565L60.8613 67.933L60.8379 67.9096L60.8147 67.8863L60.7915 67.8631L60.7685 67.8401L60.7455 67.8172L60.7227 67.7944L60.7 67.7717L60.6775 67.7491L60.655 67.7266L60.6327 67.7043L60.6104 67.682L60.5883 67.6599L60.5664 67.6379L60.5445 67.6161L60.5227 67.5943L60.5011 67.5727L60.4796 67.5512L60.4582 67.5298L60.437 67.5085L60.4158 67.4874L60.3948 67.4663L60.3739 67.4454L60.3531 67.4246L60.3324 67.404L60.3119 67.3834L60.2915 67.363L60.2712 67.3427L60.251 67.3225L60.231 67.3025L60.2111 67.2826L60.1913 67.2628L60.1716 67.2431L60.1521 67.2236L60.1327 67.2041L60.1134 67.1849L60.0942 67.1657L60.0752 67.1467L60.0563 67.1278L60.0375 67.109L60.0189 67.0903L60.0004 67.0718L59.982 67.0534L59.9637 67.0352L59.9456 67.017L59.9276 66.999L59.9097 66.9811L59.892 66.9634L59.8744 66.9458L59.8569 66.9283L59.8396 66.911L59.8224 66.8938L59.8053 66.8767L59.7884 66.8598L59.7716 66.843L59.7549 66.8263L59.7384 66.8097L59.722 66.7933L59.7057 66.7771L59.6896 66.7609L59.6736 66.7449L59.6577 66.7291L59.642 66.7134L59.6264 66.6978L59.611 66.6823L59.5957 66.667L59.5805 66.6519L59.5655 66.6368L59.5506 66.6219L59.5359 66.6072L59.5348 66.6061Z" stroke="#4D4D4D" stroke-width="2"/>
<path d="M65.6665 60.4763L61.9388 64.2031L58.1346 60.3979C58.1569 60.3746 58.1795 60.3509 58.2026 60.3267C58.6515 59.8561 59.2513 59.2223 59.852 58.5717C60.4507 57.9232 61.0587 57.249 61.5205 56.7004C61.5974 56.6091 61.6716 56.5195 61.7421 56.4328C62.239 56.9057 62.8938 57.569 63.5592 58.2576C64.2492 58.9718 64.9402 59.7025 65.4593 60.2554C65.532 60.3327 65.6012 60.4065 65.6665 60.4763ZM61.0959 55.861C61.0928 55.8591 61.0911 55.8579 61.0911 55.8579C61.0911 55.8578 61.0926 55.8588 61.0959 55.861Z" stroke="#4D4D4D" stroke-width="2"/>
<path d="M64 71.1423L71.9302 63" stroke="#4D4D4D" stroke-width="2"/>
</svg>
