<svg width="142" height="142" viewBox="0 0 142 142" fill="none" xmlns="http://www.w3.org/2000/svg">
<rect width="142" height="142" rx="71" fill="#F6F6F6"/>
<g clip-path="url(#clip0_6250_36686)">
<path d="M70.1624 82.3504C85.3768 82.3504 97.8138 69.9134 97.8138 54.699C97.8138 39.4846 85.3768 27.0476 70.1624 27.0476C54.948 27.0476 42.5112 39.4846 42.5112 54.699C42.5112 69.9134 54.9482 82.3504 70.1624 82.3504Z" fill="#B3B3B3"/>
<path d="M117.616 104.447C116.892 102.636 115.926 100.946 114.839 99.3759C109.285 91.1649 100.712 85.7313 91.052 84.403C89.8446 84.2824 88.5163 84.5237 87.5503 85.2482C82.4788 88.9914 76.4415 90.9234 70.1624 90.9234C63.8834 90.9234 57.8461 88.9914 52.7746 85.2482C51.8085 84.5237 50.4803 84.1615 49.2729 84.403C39.613 85.7313 30.9192 91.1649 25.4856 99.3759C24.3989 100.946 23.4328 102.757 22.7084 104.447C22.3463 105.172 22.4669 106.017 22.8291 106.742C23.7952 108.432 25.0025 110.123 26.0893 111.572C27.7797 113.866 29.591 115.919 31.6438 117.85C33.3342 119.541 35.2661 121.111 37.1983 122.68C46.7373 129.805 58.2085 133.548 70.0418 133.548C81.8751 133.548 93.3463 129.804 102.885 122.68C104.817 121.231 106.749 119.541 108.44 117.85C110.372 115.919 112.304 113.866 113.994 111.572C115.202 110.002 116.289 108.432 117.254 106.742C117.858 106.017 117.979 105.172 117.616 104.447Z" fill="#B3B3B3"/>
</g>
<defs>
<clipPath id="clip0_6250_36686">
<rect width="106.5" height="106.5" fill="white" transform="translate(16.9048 27.0476)"/>
</clipPath>
</defs>
</svg>
