<svg width="10" height="20" viewBox="0 0 10 20" fill="none" xmlns="http://www.w3.org/2000/svg">
<path d="M8.75024 7.75C8.94915 7.75 9.13992 7.67098 9.28057 7.53033C9.42122 7.38968 9.50024 7.19891 9.50024 7V6.38035C9.4981 5.37548 9.10594 4.41068 8.4064 3.68928C7.70685 2.96789 6.75457 2.54624 5.75024 2.5132V1C5.75024 0.801088 5.67122 0.610322 5.53057 0.46967C5.38992 0.329018 5.19915 0.25 5.00024 0.25C4.80133 0.25 4.61056 0.329018 4.46991 0.46967C4.32926 0.610322 4.25024 0.801088 4.25024 1V2.5132C3.36063 2.54155 2.50792 2.87539 1.83553 3.45858C1.16315 4.04177 0.712114 4.83872 0.558292 5.71539C0.40447 6.59206 0.557246 7.49496 0.990923 8.27222C1.4246 9.04948 2.11272 9.65369 2.93954 9.9832L6.50392 11.4096C7.0175 11.6151 7.44348 11.993 7.70867 12.4785C7.97386 12.964 8.0617 13.5266 7.95709 14.0698C7.85248 14.613 7.56196 15.1028 7.13545 15.455C6.70893 15.8073 6.17305 16 5.61989 16H4.38059C3.7495 15.9993 3.14446 15.7483 2.69822 15.302C2.25197 14.8558 2.00095 14.2507 2.00024 13.6196V13C2.00024 12.8011 1.92122 12.6103 1.78057 12.4697C1.63992 12.329 1.44915 12.25 1.25024 12.25C1.05133 12.25 0.860562 12.329 0.71991 12.4697C0.579258 12.6103 0.50024 12.8011 0.50024 13V13.6196C0.502379 14.6245 0.894543 15.5893 1.59409 16.3107C2.29363 17.0321 3.24591 17.4538 4.25024 17.4868V19C4.25024 19.1989 4.32926 19.3897 4.46991 19.5303C4.61056 19.671 4.80133 19.75 5.00024 19.75C5.19915 19.75 5.38992 19.671 5.53057 19.5303C5.67122 19.3897 5.75024 19.1989 5.75024 19V17.4868C6.63985 17.4585 7.49256 17.1246 8.16495 16.5414C8.83733 15.9582 9.28837 15.1613 9.44219 14.2846C9.59601 13.4079 9.44323 12.505 9.00956 11.7278C8.57588 10.9505 7.88776 10.3463 7.06094 10.0168L3.49656 8.59037C2.98298 8.38489 2.557 8.00695 2.29181 7.5215C2.02662 7.03605 1.93878 6.47339 2.04339 5.93021C2.148 5.38703 2.43852 4.89723 2.86503 4.54499C3.29155 4.19275 3.82743 4.00005 4.38059 4H5.61989C6.25098 4.00071 6.85601 4.25173 7.30226 4.69798C7.74851 5.14422 7.99953 5.74926 8.00024 6.38035V7C8.00024 7.19891 8.07926 7.38968 8.21991 7.53033C8.36056 7.67098 8.55133 7.75 8.75024 7.75Z" fill="black"/>
</svg>
