<svg width="64" height="64" viewBox="0 0 64 64" fill="none" xmlns="http://www.w3.org/2000/svg">
<g clip-path="url(#clip0_6601_33492)">
<path d="M53.3332 46.1183L50.6166 44.4907C49.7884 43.9954 48.8411 43.7339 47.8759 43.7334H43.7874C42.9504 43.7319 42.1171 43.8397 41.3077 44.0532L28.989 47.36C27.6421 47.7318 26.5603 48.735 26.0885 50.0501L15.253 44.1881C14.3744 43.6881 13.3458 43.5183 12.353 43.7089C11.9786 43.7751 11.6155 43.8944 11.2744 44.0631C10.5041 44.4319 9.86503 45.0277 9.44211 45.7699C9.07232 46.4162 8.87805 47.148 8.87805 47.8923C8.86659 49.4121 9.6718 50.8204 10.9864 51.5818L30.4062 63.2011C31.2499 63.7235 32.2218 64.0001 33.214 64.0001H48.2431C48.9145 64.0006 49.5796 63.8735 50.2036 63.6266L53.3332 62.3907V64.0001H63.9999V42.6667H53.3332V46.1183ZM49.4197 61.6428C49.0463 61.7902 48.6478 61.8662 48.2463 61.8667H33.214C32.6129 61.8662 32.0239 61.6969 31.5145 61.3782L12.0682 49.7454C11.4072 49.3636 11.0025 48.6563 11.0077 47.8933C11.0093 47.5193 11.1077 47.1516 11.2937 46.8266C11.5062 46.4584 11.826 46.1631 12.2098 45.9808C12.3791 45.8985 12.5583 45.8402 12.7432 45.8079C12.878 45.7829 13.015 45.7699 13.152 45.7699C13.5187 45.7688 13.8791 45.8647 14.1973 46.047L25.9468 52.3959C25.9603 52.461 25.9603 52.5251 25.9775 52.5902C26.4827 54.4522 28.1718 55.7454 30.1015 55.7475C30.6952 55.6933 31.2832 55.5881 31.8593 55.4339L42.9416 52.4683L42.3916 50.4074L31.3452 53.36C30.8588 53.4719 30.2312 53.6001 30.1015 53.611C29.1379 53.6126 28.2931 52.9688 28.0395 52.0397C28.0051 51.9105 27.9848 51.7782 27.9775 51.6449C27.9775 51.6449 27.9692 51.3865 27.9775 51.2959C28.0588 50.4037 28.6838 49.6548 29.5468 49.4147L41.8603 46.1204C42.489 45.9522 43.1369 45.8667 43.7874 45.8667H47.8759C48.4551 45.8667 49.0233 46.024 49.5197 46.3214L53.3332 48.6048V60.0959L49.4197 61.6428ZM55.4666 44.8001H61.8666V61.8667H55.4666V44.8001Z" fill="#4D4D4D"/>
<path d="M43.9937 8.53337L38.2719 2.81202C36.4755 1.00525 34.0312 -0.00725255 31.4838 3.91127e-05H18.0734C17.2458 0.00108078 16.4297 0.19431 15.6885 0.56306L13.2979 1.75889C12.8187 2.00004 12.2865 2.11514 11.7505 2.09379L10.6667 2.05577V3.91127e-05H0V23.4667H10.6667V20.2667H12.4802L13.1255 20.6933C14.9312 21.8922 17.0338 22.5693 19.2 22.6485V36.2667H64V8.53337H43.9937ZM8.53333 21.3334H2.13333V2.13337H8.53333V21.3334ZM14.3062 18.9183L13.1198 18.1334H10.6667V4.19014L11.6724 4.22608C12.5656 4.25785 13.4521 4.06566 14.2516 3.66722L16.6401 2.47139C17.0849 2.249 17.576 2.13337 18.0734 2.13337H31.4838C33.4651 2.12764 35.3666 2.91514 36.7635 4.31983L40.9771 8.53337H32.175L29.5859 5.94483L28.0781 7.45264L35.613 14.9881C36.45 15.8214 36.4526 17.1755 35.6192 18.013C34.7854 18.85 33.4312 18.8526 32.5942 18.0193L26.301 11.7261L25.5542 12.3662C23.4922 14.1172 20.4781 14.162 18.3646 12.4724L17.7463 11.9714L16.4021 13.6287L17.0271 14.1354C17.6807 14.6578 18.4146 15.0714 19.2 15.3599V20.5141C17.4542 20.4365 15.762 19.8849 14.3062 18.9183ZM29.4797 17.9198L31.089 19.5297C32.7599 21.1755 35.4422 21.1782 37.1156 19.5349C35.55 21.9594 36.1677 25.186 38.5182 26.8604C40.8687 28.5349 44.1203 28.0646 45.9 25.7933C47.6797 23.5214 47.3583 20.2516 45.1698 18.3703C42.9817 16.4891 39.7005 16.6615 37.7219 18.7615C38.4505 17.6172 38.5807 16.1912 38.0713 14.9334H52.3552C52.814 17.6172 54.9161 19.7193 57.6 20.1782V24.6219C54.9161 25.0808 52.814 27.1828 52.3552 29.8667H30.8448C30.3859 27.1828 28.2838 25.0808 25.6 24.6219V20.1782C27.1245 19.9214 28.5031 19.1188 29.4797 17.9198ZM38.4 22.4C38.4 20.6328 39.8328 19.2 41.6 19.2C43.3672 19.2 44.8 20.6328 44.8 22.4C44.8 24.1672 43.3672 25.6 41.6 25.6C39.8328 25.6 38.4 24.1672 38.4 22.4ZM61.8666 34.1334H21.3333V15.8068C23.0245 15.9339 24.7104 15.5026 26.1333 14.5802L27.9531 16.4C27.1526 17.4875 25.8838 18.1308 24.5333 18.1334H23.4667V26.6667H24.5333C26.8896 26.6667 28.8 28.5771 28.8 30.9334V32H54.4V30.9334C54.4 28.5771 56.3104 26.6667 58.6666 26.6667H59.7333V18.1334H58.6666C56.3104 18.1334 54.4 16.2229 54.4 13.8667V12.8H36.4416L34.3083 10.6667H61.8666V34.1334Z" fill="#4D4D4D"/>
<circle cx="41.5" cy="22.5" r="5.5" fill="#0E46CA"/>
</g>
<defs>
<clipPath id="clip0_6601_33492">
<rect width="64" height="64" fill="white"/>
</clipPath>
</defs>
</svg>
