<svg width="90" height="90" viewBox="0 0 90 90" fill="none" xmlns="http://www.w3.org/2000/svg">
<path d="M51.6868 82.819L82.7703 52.7069C83.1714 52.3183 83.1765 51.6765 82.7816 51.2816L78.2016 46.7016C77.8132 46.3132 77.1843 46.3107 76.7929 46.696L45.7188 77.2846C45.5762 77.425 45.479 77.6049 45.4398 77.8011L44.3153 83.4234C44.17 84.1499 44.8377 84.7766 45.5536 84.5857L51.2487 83.067C51.4135 83.0231 51.5643 82.9377 51.6868 82.819Z" stroke="#4D4D4D" stroke-width="2"/>
<path d="M37.5 85H17C15.8954 85 15 84.1046 15 83V7C15 5.89543 15.8954 5 17 5H61.6485C62.1925 5 62.7131 5.22163 63.0902 5.61378L74.4417 17.4193C74.7999 17.7919 75 18.2887 75 18.8056V42" stroke="#4D4D4D" stroke-width="2" stroke-linecap="round"/>
<path d="M62 5V16C62 17.1046 62.8954 18 64 18H75" stroke="#4D4D4D" stroke-width="2"/>
<rect x="23" y="13" width="26" height="26" rx="2" fill="#0E46CA"/>
<rect x="23" y="46" width="37" height="3" rx="1.5" fill="#0E46CA"/>
<rect x="23" y="51" width="31" height="3" rx="1.5" fill="#0E46CA"/>
<rect x="23" y="66" width="17" height="7" rx="2" fill="#0E46CA"/>
</svg>
