<svg width="20" height="21" viewBox="0 0 20 21" fill="none" xmlns="http://www.w3.org/2000/svg">
<path d="M3.463 3.19571C5.27756 1.62337 7.59899 0.759355 10 0.762705C15.523 0.762705 20 5.23971 20 10.7627C20 12.8987 19.33 14.8787 18.19 16.5027L15 10.7627H18C18.0001 9.19433 17.5392 7.66051 16.6747 6.35196C15.8101 5.04341 14.5799 4.01786 13.1372 3.40283C11.6944 2.78779 10.1027 2.61041 8.55996 2.89272C7.0172 3.17504 5.59145 3.9046 4.46 4.99071L3.463 3.19571ZM16.537 18.3297C14.7224 19.902 12.401 20.7661 10 20.7627C4.477 20.7627 0 16.2857 0 10.7627C0 8.62671 0.67 6.64671 1.81 5.02271L5 10.7627H2C1.99987 12.3311 2.46075 13.8649 3.32534 15.1734C4.18992 16.482 5.42007 17.5075 6.86282 18.1226C8.30557 18.7376 9.89729 18.915 11.44 18.6327C12.9828 18.3504 14.4085 17.6208 15.54 16.5347L16.537 18.3297Z" fill="currentColor"/>
</svg>
