<svg width="90" height="90" viewBox="0 0 90 90" fill="none" xmlns="http://www.w3.org/2000/svg">
<path d="M30.2824 41.5857L42.873 10.5814C43.1625 9.86868 44.1147 9.736 44.5879 10.3425L73.5525 47.4599C74.0258 48.0664 73.6656 48.9578 72.9039 49.0653L39.7692 53.7428C39.415 53.7928 39.0611 53.6499 38.8411 53.3679L30.4205 42.5771C30.2005 42.2951 30.1478 41.9171 30.2824 41.5857Z" stroke="#4D4D4D" stroke-width="2"/>
<path d="M12.1919 56.6034L30.3244 42.4537L38.9373 53.4909L20.8048 67.6405C20.3694 67.9803 19.741 67.9028 19.4012 67.4674L12.0188 58.0069C11.679 57.5715 11.7565 56.9431 12.1919 56.6034Z" stroke="#4D4D4D" stroke-width="2"/>
<path d="M25.5349 63.9495L32.6302 58.4127L44.3191 73.3917C45.6782 75.1333 45.3681 77.6469 43.6264 79.006L42.8381 79.6212C41.0965 80.9803 38.5829 80.6701 37.2238 78.9285L25.5349 63.9495Z" stroke="#4D4D4D" stroke-width="2"/>
<path d="M65.7837 24.8447C69.61 29.748 64.9917 35.2081 64.9917 35.2081L55.7637 23.3826C55.7637 23.3826 61.9575 19.9414 65.7837 24.8447Z" fill="#0E46CA"/>
<path d="M68.1367 21.8262L76.4146 15.3665" stroke="#4D4D4D" stroke-width="2" stroke-linecap="round"/>
<path d="M64.0317 19.0044L67.9708 9.27125" stroke="#4D4D4D" stroke-width="2" stroke-linecap="round"/>
<path d="M70.0298 26.6909L80.4284 25.2356" stroke="#4D4D4D" stroke-width="2" stroke-linecap="round"/>
<rect x="17.6333" y="58.6997" width="10" height="4" rx="2" transform="rotate(-37.9667 17.6333 58.6997)" fill="#0E46CA"/>
<path d="M38.7822 66.2964L32.0811 71.5256" stroke="#4D4D4D" stroke-width="2" stroke-linecap="round"/>
</svg>
