<svg viewBox="0 0 217 26" fill="none" xmlns="http://www.w3.org/2000/svg">
<g clip-path="url(#clip0_4619_33479)">
<path d="M2.6465 20.5521C1.69637 20.5518 0.983867 20.2843 0.508993 19.7497C0.053914 19.2151 -0.0942783 18.4728 0.0644165 17.5227L2.4749 2.23239C2.61377 1.36149 2.94061 0.708392 3.45542 0.273099C3.97023 -0.162193 4.66311 -0.379683 5.53407 -0.379372L12.3334 -0.37694C13.9764 -0.376352 15.3025 -0.148243 16.3119 0.307389C17.3212 0.743226 18.0534 1.34722 18.5084 2.11936C18.9634 2.87171 19.1907 3.72295 19.1904 4.67308C19.1899 6.13786 18.7243 7.33525 17.7936 8.26526C16.8629 9.19526 15.6454 9.78865 14.1409 10.0454L14.1411 9.54069C15.4276 9.79847 16.427 10.3531 17.1393 11.2045C17.8714 12.0361 18.2372 13.0655 18.2368 14.2928C18.2361 16.3118 17.5229 17.8654 16.0973 18.9536C14.6718 20.022 12.7515 20.5558 10.3366 20.5549L2.6465 20.5521ZM5.40925 16.5448L10.0114 16.5464C11.0407 16.5468 11.8029 16.3194 12.2979 15.8643C12.793 15.4092 13.0406 14.766 13.0409 13.9346C13.0411 13.2616 12.8137 12.7667 12.3585 12.4498C11.9034 12.1132 11.2502 11.9447 10.3991 11.9444L6.15318 11.9428L5.40925 16.5448ZM6.77814 7.93471L10.7865 7.93614C11.8356 7.93652 12.6274 7.71906 13.1621 7.28378C13.7165 6.8485 13.9938 6.20528 13.9941 5.35412C13.9943 4.79988 13.7866 4.37423 13.371 4.07717C12.9753 3.78011 12.3221 3.63142 11.4116 3.63109L7.46258 3.62968L6.77814 7.93471Z" fill="#072365"/>
<path d="M25.2757 20.8868C24.2464 20.8865 23.3558 20.6684 22.6037 20.2327C21.8715 19.7969 21.3472 19.1138 21.0308 18.1834C20.7342 17.2529 20.6951 16.0554 20.9133 14.5907L21.9549 8.11829C22.0937 7.28697 22.4008 6.67346 22.876 6.27774C23.3512 5.88202 23.9946 5.68431 24.8061 5.6846C25.7167 5.68492 26.3698 5.93259 26.7655 6.42759C27.181 6.9226 27.3193 7.63524 27.1804 8.56553L26.2282 14.5035C26.1289 15.2754 26.1881 15.8594 26.4057 16.2554C26.6233 16.6513 27.0488 16.8494 27.6822 16.8497C28.4542 16.8499 29.0976 16.573 29.6125 16.019C30.1273 15.4649 30.4641 14.6931 30.6228 13.7034L31.5155 8.1217C31.6544 7.29039 31.9614 6.67688 32.4366 6.28116C32.9118 5.88544 33.5552 5.68773 34.3668 5.68802C35.2575 5.68834 35.9008 5.936 36.2965 6.431C36.712 6.926 36.8503 7.63865 36.7114 8.56894L35.1639 18.3963C34.906 20.0193 33.9556 20.8306 32.3127 20.83C31.4813 20.8297 30.8776 20.6216 30.5017 20.2058C30.1258 19.7702 30.0072 19.0872 30.1461 18.157L30.3842 16.5537L30.3541 17.8601C29.8193 18.8892 29.1064 19.6511 28.2155 20.1456C27.3443 20.6402 26.3644 20.8872 25.2757 20.8868Z" fill="#072365"/>
<path d="M41.3544 26.1777C40.7012 26.1775 40.1866 26.0288 39.8106 25.7318C39.4544 25.4545 39.2566 25.0784 39.2172 24.6033C39.1975 24.1282 39.3462 23.6235 39.6631 23.0892L42.4854 18.5177L42.1877 20.6554L38.9851 9.19327C38.7874 8.5004 38.758 7.89666 38.8967 7.38206C39.0553 6.84767 39.3424 6.43209 39.7582 6.13532C40.174 5.83855 40.6986 5.69028 41.332 5.69051C42.0446 5.69076 42.5889 5.85921 42.9649 6.19585C43.3408 6.53249 43.6276 7.14622 43.8253 8.03703L45.5447 15.5199L44.5352 15.5196L49.0512 7.53415C49.4275 6.86127 49.8236 6.38635 50.2393 6.10938C50.6749 5.83241 51.2292 5.69405 51.9022 5.69429C52.5554 5.69452 53.07 5.84316 53.446 6.14022C53.822 6.41747 54.0297 6.79364 54.0691 7.26872C54.1086 7.724 53.9599 8.2287 53.6232 8.78283L44.2351 24.3082C43.839 24.981 43.433 25.4559 43.0173 25.7329C42.6015 26.0297 42.0472 26.1779 41.3544 26.1777Z" fill="#072365"/>
<path d="M65.5296 20.8419C64.6587 20.8415 64.0253 20.5642 63.6297 20.0098C63.234 19.4554 63.1155 18.6636 63.2742 17.6344L65.7144 2.34408C65.8533 1.43359 66.19 0.760705 66.7246 0.32542C67.2592 -0.129659 67.9818 -0.357036 68.8923 -0.35671L75.1276 -0.35448C77.5227 -0.353624 79.3535 0.181479 80.6199 1.25083C81.9062 2.30039 82.549 3.75551 82.5483 5.61618C82.5477 7.25911 82.191 8.605 81.478 9.65384C80.765 10.7027 79.7849 11.4743 78.5377 11.9687C77.2905 12.4631 75.8652 12.7101 74.2618 12.7095L74.262 12.175L75.3606 12.1754C76.3899 12.1758 77.2212 12.4532 77.8544 13.0077C78.4876 13.5622 78.9921 14.3244 79.3679 15.2945L80.1688 17.4029C80.4655 18.1156 80.5741 18.7292 80.4947 19.2439C80.4154 19.7585 80.1579 20.1543 79.7223 20.4313C79.2868 20.7082 78.683 20.8466 77.911 20.8463C77.1786 20.846 76.5848 20.6578 76.1297 20.2815C75.6944 19.9053 75.3284 19.3113 75.0318 18.4996L73.4299 14.2828C73.2322 13.7285 72.9651 13.3424 72.6287 13.1246C72.312 12.8869 71.8667 12.768 71.2927 12.7678L69.5112 12.7672L68.6779 18.141C68.539 19.0515 68.2023 19.7343 67.6677 20.1894C67.133 20.6247 66.4204 20.8422 65.5296 20.8419ZM70.1064 8.90749L74.0554 8.9089C75.1243 8.90928 75.9359 8.68194 76.4903 8.22687C77.0645 7.75201 77.3518 7.04941 77.3521 6.11907C77.3524 5.34709 77.0953 4.77297 76.5808 4.39669C76.086 4.02042 75.2943 3.83209 74.2056 3.8317L70.9099 3.83052L70.1064 8.90749Z" fill="#072365"/>
<path d="M91.2539 20.9104C89.6901 20.9099 88.3244 20.6323 87.1567 20.0776C85.989 19.5032 85.0788 18.7012 84.426 17.6716C83.7731 16.6421 83.4469 15.4444 83.4474 14.0786C83.448 12.3961 83.8147 10.9215 84.5476 9.65494C85.3002 8.38837 86.3101 7.40891 87.5772 6.71656C88.8641 6.00443 90.2894 5.64864 91.8531 5.6492C93.12 5.64965 94.1888 5.85787 95.0596 6.27387C95.9502 6.68987 96.6527 7.25426 97.1671 7.96704C97.7013 8.67983 98.0573 9.49152 98.2351 10.4021C98.413 11.2929 98.4423 12.2134 98.3232 13.1635C98.2637 13.6583 98.125 13.9849 97.9072 14.1431C97.6894 14.2816 97.4023 14.3508 97.046 14.3507L87.7526 14.3474L88.1098 11.8534L94.7013 11.8557L94.2261 12.2416C94.3253 11.628 94.2958 11.0836 94.1376 10.6085C93.9992 10.1334 93.7321 9.7671 93.3363 9.50963C92.9603 9.23237 92.4457 9.09363 91.7925 9.09339C91.1591 9.09317 90.6246 9.23154 90.189 9.5085C89.7535 9.78547 89.397 10.1614 89.1197 10.6364C88.8622 11.1114 88.6938 11.6458 88.6144 12.2396L88.4062 13.3975C88.2276 14.5653 88.445 15.466 89.0584 16.0996C89.6718 16.7135 90.602 17.0206 91.8491 17.0211C92.3043 17.0212 92.8091 16.9719 93.3634 16.8731C93.9375 16.7744 94.4324 16.6261 94.8481 16.4283C95.3827 16.2108 95.8281 16.1614 96.1843 16.2803C96.5604 16.3992 96.8374 16.627 97.0154 16.9635C97.1935 17.2803 97.2626 17.6366 97.2229 18.0325C97.203 18.4284 97.0741 18.8143 96.8365 19.1903C96.5988 19.5465 96.2424 19.8235 95.7673 20.0213C95.0744 20.3378 94.332 20.5651 93.5402 20.7034C92.7681 20.8417 92.006 20.9107 91.2539 20.9104Z" fill="#072365"/>
<path d="M111.284 26.2027C110.453 26.2024 109.849 25.935 109.474 25.4004C109.098 24.8658 108.979 24.1136 109.118 23.1437L109.892 18.2449L110.189 18.245C109.634 19.0959 108.931 19.7588 108.08 20.2336C107.229 20.6885 106.308 20.9158 105.318 20.9155C104.21 20.9151 103.25 20.6574 102.439 20.1425C101.627 19.6275 100.994 18.8949 100.539 17.9446C100.104 16.9745 99.8866 15.8462 99.8871 14.5595C99.8877 12.8374 100.195 11.3035 100.809 9.95767C101.423 8.61188 102.285 7.56308 103.393 6.81129C104.522 6.03972 105.829 5.65419 107.313 5.65473C108.342 5.65509 109.253 5.89295 110.045 6.3683C110.836 6.82385 111.4 7.49706 111.736 8.38793L111.439 9.60518L111.617 8.3285C111.756 7.4576 112.053 6.80449 112.509 6.36918C112.984 5.93387 113.657 5.71638 114.528 5.71669C115.34 5.71698 115.933 5.98442 116.309 6.519C116.705 7.05359 116.833 7.80582 116.695 8.77569L114.344 23.5612C114.205 24.4519 113.878 25.1149 113.363 25.5502C112.848 25.9855 112.155 26.203 111.284 26.2027ZM107.517 17.0267C108.19 17.0269 108.764 16.8193 109.239 16.4038C109.714 15.9882 110.081 15.4341 110.338 14.7414C110.596 14.0289 110.725 13.2174 110.725 12.3069C110.726 11.4161 110.518 10.7331 110.103 10.2579C109.707 9.78271 109.153 9.54498 108.44 9.54472C107.767 9.54448 107.183 9.74222 106.688 10.1379C106.213 10.5336 105.846 11.0878 105.589 11.8003C105.331 12.5128 105.202 13.3342 105.202 14.2645C105.202 15.1553 105.409 15.8382 105.825 16.3135C106.24 16.7887 106.804 17.0264 107.517 17.0267Z" fill="#072365"/>
<path d="M123.107 20.9218C122.078 20.9215 121.187 20.7034 120.435 20.2677C119.703 19.8319 119.179 19.1488 118.862 18.2184C118.566 17.2879 118.526 16.0904 118.745 14.6257L119.786 8.15328C119.925 7.32196 120.232 6.70845 120.707 6.31273C121.183 5.91701 121.826 5.7193 122.637 5.71959C123.548 5.71991 124.201 5.96758 124.597 6.46258C125.012 6.95759 125.151 7.67023 125.012 8.60052L124.059 14.5385C123.96 15.3104 124.019 15.8944 124.237 16.2904C124.455 16.6863 124.88 16.8844 125.514 16.8846C126.286 16.8849 126.929 16.608 127.444 16.054C127.959 15.4999 128.295 14.7281 128.454 13.7384L129.347 8.1567C129.486 7.32538 129.793 6.71187 130.268 6.31615C130.743 5.92043 131.387 5.72272 132.198 5.72301C133.089 5.72333 133.732 5.97099 134.128 6.46599C134.543 6.961 134.682 7.67364 134.543 8.60393L132.995 18.4313C132.737 20.0543 131.787 20.8656 130.144 20.865C129.313 20.8647 128.709 20.6566 128.333 20.2408C127.957 19.8052 127.839 19.1222 127.977 18.192L128.216 16.5887L128.185 17.8951C127.651 18.9242 126.938 19.6861 126.047 20.1806C125.176 20.6751 124.196 20.9222 123.107 20.9218Z" fill="#072365"/>
<path d="M143.968 20.9293C142.404 20.9287 141.038 20.6511 139.871 20.0965C138.703 19.522 137.793 18.72 137.14 17.6905C136.487 16.6609 136.161 15.4633 136.162 14.0974C136.162 12.4149 136.529 10.9404 137.262 9.6738C138.014 8.40723 139.024 7.42777 140.291 6.73542C141.578 6.02328 143.003 5.66749 144.567 5.66805C145.834 5.6685 146.903 5.87673 147.774 6.29272C148.664 6.70872 149.367 7.27311 149.881 7.98589C150.415 8.69868 150.771 9.51038 150.949 10.421C151.127 11.3118 151.156 12.2322 151.037 13.1823C150.978 13.6772 150.839 14.0037 150.621 14.162C150.403 14.3005 150.116 14.3697 149.76 14.3695L140.467 14.3662L140.824 11.8722L147.415 11.8746L146.94 12.2604C147.039 11.6468 147.01 11.1025 146.852 10.6274C146.713 10.1522 146.446 9.78595 146.05 9.52848C145.674 9.25123 145.16 9.11248 144.507 9.11225C143.873 9.11202 143.339 9.25039 142.903 9.52736C142.468 9.80432 142.111 10.1803 141.834 10.6553C141.576 11.1302 141.408 11.6646 141.328 12.2584L141.12 13.4163C140.942 14.5841 141.159 15.4848 141.772 16.1185C142.386 16.7323 143.316 17.0395 144.563 17.0399C145.018 17.0401 145.523 16.9908 146.077 16.892C146.652 16.7932 147.146 16.6449 147.562 16.4472C148.097 16.2296 148.542 16.1803 148.898 16.2992C149.274 16.4181 149.551 16.6458 149.73 16.9824C149.908 17.2992 149.977 17.6555 149.937 18.0513C149.917 18.4472 149.788 18.8332 149.551 19.2092C149.313 19.5654 148.957 19.8424 148.481 20.0402C147.788 20.3566 147.046 20.584 146.254 20.7223C145.482 20.8606 144.72 20.9296 143.968 20.9293Z" fill="#072365"/>
<path d="M158.597 20.9345C157.686 20.9342 156.795 20.8547 155.924 20.696C155.054 20.5374 154.301 20.3392 153.668 20.1014C153.134 19.9033 152.748 19.626 152.51 19.2696C152.293 18.9132 152.194 18.5371 152.214 18.1412C152.234 17.7454 152.353 17.399 152.571 17.1022C152.788 16.8053 153.085 16.5976 153.462 16.479C153.857 16.3405 154.303 16.3704 154.798 16.5685C155.411 16.8261 156.045 17.0242 156.698 17.163C157.351 17.3018 157.974 17.3713 158.568 17.3715C159.34 17.3718 159.904 17.2532 160.261 17.0158C160.617 16.7784 160.795 16.4816 160.795 16.1253C160.796 15.8482 160.697 15.6403 160.499 15.5017C160.321 15.3432 160.014 15.2343 159.578 15.1747L156.936 14.7284C155.709 14.53 154.759 14.0942 154.086 13.421C153.433 12.7279 153.107 11.8766 153.107 10.8671C153.108 9.95659 153.375 9.10552 153.91 8.31394C154.464 7.52236 155.276 6.88923 156.345 6.41455C157.434 5.92008 158.79 5.67314 160.413 5.67372C161.007 5.67393 161.66 5.73355 162.373 5.85257C163.105 5.9716 163.768 6.15988 164.362 6.41742C164.896 6.61555 165.272 6.89281 165.49 7.24919C165.727 7.58577 165.826 7.94211 165.786 8.31819C165.767 8.69427 165.648 9.03074 165.43 9.32757C165.212 9.60462 164.905 9.80245 164.509 9.92108C164.113 10.0397 163.668 10.0098 163.173 9.83152C162.718 9.63342 162.213 9.48478 161.659 9.38561C161.125 9.26665 160.61 9.20708 160.115 9.20691C159.303 9.20662 158.71 9.33507 158.333 9.59226C157.957 9.82966 157.769 10.1463 157.769 10.5422C157.769 10.7599 157.838 10.948 157.977 11.1064C158.135 11.2648 158.392 11.3738 158.748 11.4333L161.391 11.8499C162.757 12.0879 163.776 12.5436 164.449 13.2168C165.121 13.8901 165.458 14.7314 165.457 15.741C165.457 17.4433 164.833 18.7396 163.585 19.6299C162.338 20.5004 160.675 20.9353 158.597 20.9345Z" fill="#072365"/>
<path d="M174.755 20.9403C173.251 20.9398 172.024 20.6721 171.074 20.1373C170.124 19.6025 169.461 18.86 169.085 17.9097C168.729 16.9595 168.64 15.8708 168.819 14.6436L169.593 9.8932L168.939 9.89297C168.286 9.89273 167.772 9.75399 167.396 9.47673C167.039 9.17969 166.861 8.76395 166.862 8.2295C166.862 7.5169 167.09 6.97264 167.545 6.59671C168.02 6.20099 168.664 6.00328 169.475 6.00357L170.218 6.00383L170.545 3.92554C170.684 3.11402 170.991 2.5104 171.466 2.11468C171.941 1.69917 172.585 1.49156 173.396 1.49185C174.307 1.49218 174.96 1.73984 175.356 2.23484C175.751 2.72984 175.88 3.44249 175.741 4.37277L175.503 6.00572L177.64 6.00649C178.294 6.00672 178.808 6.14547 179.184 6.42272C179.56 6.68018 179.748 7.08603 179.748 7.64028C179.748 8.2737 179.53 8.80807 179.094 9.24339C178.678 9.67871 178.104 9.89625 177.372 9.89598L174.878 9.89509L174.134 14.4376C174.015 15.2492 174.114 15.8331 174.43 16.1895C174.767 16.5262 175.232 16.6946 175.825 16.6948C176.122 16.6949 176.37 16.6752 176.568 16.6357C176.766 16.5764 176.984 16.5468 177.221 16.5468C177.597 16.547 177.864 16.646 178.023 16.844C178.201 17.042 178.29 17.4281 178.289 18.0021C178.289 18.972 178.121 19.645 177.784 20.021C177.447 20.3969 177.022 20.6442 176.507 20.7628C176.23 20.8221 175.933 20.8616 175.616 20.8812C175.319 20.9207 175.032 20.9404 174.755 20.9403Z" fill="#072365"/>
<path d="M202.928 21.2401C202.942 21.2144 202.954 21.1875 202.964 21.1597L202.972 21.1329C202.978 21.1102 202.983 21.0872 202.987 21.064C202.988 21.0503 202.988 21.0367 202.987 21.0231C202.987 21.0091 202.987 20.9963 202.987 20.9823C202.987 20.9682 202.987 20.9606 202.987 20.9503C202.987 20.9401 202.987 20.9401 202.987 20.935C202.987 20.9287 202.987 20.9222 202.987 20.9159C202.987 20.8861 202.984 20.858 202.979 20.8316C202.979 20.8286 202.979 20.8257 202.979 20.8227C202.967 20.7266 202.922 20.6375 202.852 20.5699C202.783 20.5023 202.693 20.46 202.596 20.4499C202.559 20.441 202.522 20.4355 202.484 20.4333C202.105 20.4164 201.728 20.3737 201.355 20.3057C200.401 20.0925 199.623 19.5997 199.178 18.6857C199.167 18.6136 199.148 18.5429 199.121 18.4751C198.989 18.1344 198.888 17.7823 198.82 17.4232C198.763 16.9841 198.747 16.5296 198.709 16.0854C198.709 16.0586 198.709 16.0356 198.699 16.0101C198.695 15.8813 198.65 15.7571 198.571 15.6552C198.532 15.6065 198.482 15.5681 198.424 15.5434C198.367 15.5187 198.304 15.5084 198.242 15.5135C197.976 15.5211 197.826 15.7203 197.808 16.065V16.0918C197.794 16.5266 197.757 16.9604 197.697 17.3913C197.607 18.0371 197.373 18.6544 197.013 19.1976C196.758 19.5138 196.441 19.7744 196.082 19.9636C195.761 20.1335 195.417 20.2564 195.061 20.3287C194.73 20.3772 194.391 20.395 194.059 20.4321H194.01C193.952 20.4284 193.894 20.4363 193.839 20.4552C193.784 20.4741 193.733 20.5037 193.69 20.5422C193.646 20.5808 193.611 20.6275 193.585 20.6798C193.56 20.7321 193.545 20.7889 193.542 20.8469C193.537 20.8812 193.535 20.9158 193.535 20.9503V20.9593C193.535 20.9593 193.535 20.9593 193.535 20.9695C193.535 20.9937 193.535 21.0167 193.543 21.0397C193.551 21.0627 193.543 21.0614 193.543 21.0703C193.543 21.0793 193.553 21.1125 193.558 21.1329C193.563 21.1533 193.558 21.1571 193.567 21.1673C193.576 21.1897 193.586 21.2115 193.598 21.2325L193.605 21.2478C193.651 21.319 193.714 21.3772 193.789 21.4166C193.864 21.456 193.947 21.4753 194.032 21.4724H194.179C194.487 21.4895 194.795 21.5266 195.099 21.5835C195.736 21.6997 196.324 22.0002 196.792 22.4477C197.052 22.7456 197.258 23.0864 197.402 23.4549C197.634 24.0571 197.766 24.6931 197.793 25.3379C197.793 25.5038 197.8 25.6698 197.809 25.8344C197.809 25.8463 197.809 25.8583 197.809 25.8702C197.819 26.1829 197.969 26.3616 198.206 26.3808C198.215 26.3815 198.225 26.3815 198.234 26.3808H198.284C198.308 26.3802 198.331 26.3776 198.354 26.3731H198.368C198.393 26.3674 198.417 26.3597 198.44 26.3502C198.595 26.2774 198.695 26.1063 198.695 25.8587C198.695 25.8472 198.695 25.8357 198.695 25.8242C198.722 25.4106 198.737 24.9945 198.802 24.5885C198.99 23.4281 199.433 22.5333 200.226 22.0061C200.288 21.9929 200.348 21.9715 200.404 21.9422C200.843 21.714 201.318 21.5649 201.809 21.5018C202.035 21.4878 202.263 21.4852 202.49 21.4699C202.573 21.4699 202.653 21.4488 202.725 21.4086C202.797 21.3683 202.857 21.3103 202.9 21.2401C202.9 21.2364 202.902 21.2328 202.904 21.2302C202.907 21.2275 202.91 21.2261 202.914 21.2261C202.918 21.2261 202.921 21.2275 202.924 21.2302C202.927 21.2328 202.928 21.2364 202.928 21.2401Z" fill="#072365"/>
<path d="M196.825 4.80622C196.834 4.7896 196.842 4.77206 196.848 4.75388C196.848 4.75388 196.848 4.74111 196.848 4.73472C196.852 4.71961 196.856 4.70427 196.858 4.68877C196.859 4.67985 196.859 4.67089 196.858 4.66197C196.859 4.65262 196.859 4.64322 196.858 4.63387C196.858 4.63387 196.858 4.61984 196.858 4.61346C196.858 4.60708 196.858 4.60579 196.858 4.60196C196.858 4.59813 196.858 4.5943 196.858 4.59047C196.858 4.58664 196.858 4.55218 196.858 4.53304C196.852 4.46914 196.824 4.40921 196.78 4.3629C196.735 4.31659 196.677 4.28659 196.613 4.27772C196.589 4.27245 196.565 4.26861 196.54 4.26622C196.295 4.25568 196.05 4.2271 195.809 4.1807C195.19 4.03901 194.687 3.70838 194.398 3.09563C194.391 3.04754 194.379 3.00041 194.361 2.95522C194.275 2.72674 194.21 2.49087 194.167 2.25056C194.129 1.95695 194.119 1.65185 194.094 1.35697C194.094 1.3391 194.094 1.32378 194.094 1.30718C194.092 1.2216 194.063 1.13882 194.013 1.06974C193.988 1.03721 193.956 1.01139 193.918 0.994665C193.881 0.977937 193.84 0.970833 193.8 0.974002C193.627 0.974002 193.529 1.11315 193.517 1.34421C193.517 1.34421 193.517 1.35568 193.517 1.36206C193.508 1.65287 193.485 1.94304 193.446 2.2314C193.389 2.66259 193.237 3.07583 193.002 3.44158C192.839 3.65199 192.633 3.82593 192.399 3.9522C192.192 4.06599 191.968 4.14859 191.737 4.1973C191.522 4.22921 191.303 4.24197 191.087 4.26622H191.055C191.017 4.26434 190.979 4.27004 190.943 4.28298C190.907 4.29591 190.874 4.31584 190.846 4.3416C190.818 4.36736 190.795 4.39844 190.779 4.43305C190.763 4.46767 190.754 4.50512 190.752 4.54324C190.75 4.5666 190.75 4.5901 190.752 4.61346V4.62111C190.752 4.6377 190.752 4.65175 190.752 4.66706C190.752 4.68238 190.752 4.68111 190.752 4.68877C190.755 4.70256 190.758 4.71619 190.763 4.72961C190.762 4.73726 190.762 4.74495 190.763 4.7526C190.768 4.76802 190.774 4.78297 190.782 4.79727V4.80748C190.81 4.85445 190.851 4.893 190.9 4.91923C190.948 4.94545 191.002 4.95842 191.057 4.95684H191.152C191.353 4.96806 191.552 4.9928 191.749 5.03088C192.164 5.11045 192.546 5.31228 192.846 5.61044C193.015 5.81074 193.149 6.03876 193.24 6.28446C193.392 6.68875 193.478 7.11444 193.496 7.5457C193.496 7.65676 193.496 7.76782 193.506 7.8776C193.505 7.88525 193.505 7.89294 193.506 7.90058C193.514 8.10994 193.609 8.23121 193.761 8.24525H193.779H193.811H193.857H193.866C193.882 8.24169 193.897 8.23656 193.912 8.22993C193.968 8.19656 194.014 8.14786 194.043 8.08954C194.073 8.03122 194.085 7.96569 194.079 7.90058V7.8776C194.097 7.60059 194.145 7.32485 194.149 7.0504C194.174 5.13556 195.787 5.02579 196.101 4.98238C196.248 4.97345 196.396 4.97217 196.543 4.96196C196.597 4.96164 196.649 4.94719 196.696 4.92008C196.742 4.89297 196.78 4.85414 196.807 4.80748L196.825 4.80622Z" fill="#072365"/>
<path d="M217.414 11.5697C217.372 11.2672 217.158 11.0987 216.784 11.0898C216.581 11.0898 216.378 11.1012 216.177 11.0808C215.625 11.0259 215.067 10.9991 214.517 10.9366C213.627 10.7862 212.765 10.4977 211.964 10.0813C211.186 9.67732 210.482 9.14472 209.882 8.50602C209.572 8.13657 209.295 7.74107 209.054 7.32393C208.137 5.74228 207.689 3.96915 207.545 2.09006C207.504 1.56412 207.504 1.03307 207.492 0.503295C207.492 0.461169 207.492 0.419043 207.492 0.37564C207.494 0.304781 207.489 0.233931 207.48 0.163728C207.472 0.045896 207.435 -0.0681801 207.372 -0.168173C207.366 -0.175954 207.361 -0.184043 207.356 -0.19242L207.321 -0.232001C207.258 -0.305401 207.171 -0.354552 207.075 -0.371141C207.053 -0.375886 207.032 -0.379291 207.01 -0.381348H206.968C206.941 -0.380757 206.915 -0.378205 206.889 -0.373696C206.871 -0.370948 206.853 -0.366681 206.836 -0.360934L206.797 -0.346894C206.776 -0.338228 206.756 -0.327971 206.737 -0.316242L206.709 -0.298384L206.663 -0.260081C206.646 -0.243428 206.63 -0.225499 206.615 -0.20646L206.604 -0.19242C206.527 -0.0864896 206.483 0.0394556 206.476 0.170117C206.468 0.230244 206.464 0.290774 206.463 0.351393C206.463 0.585002 206.472 0.821165 206.455 1.0535C206.41 1.65475 206.388 2.26111 206.341 2.86109C206.245 3.59558 206.091 4.32127 205.88 5.03123C205.459 6.43544 204.837 7.61115 204.044 8.53282C203.784 8.80536 203.503 9.05798 203.204 9.28855C201.836 10.3494 200.302 10.8664 198.674 11.0336C198.488 11.0527 198.3 11.063 198.112 11.0693C197.765 11.0783 197.417 11.0808 197.069 11.0974C197.001 11.0952 196.933 11.1068 196.869 11.1314C196.805 11.1561 196.747 11.1933 196.697 11.241C196.648 11.2886 196.609 11.3457 196.582 11.4087C196.556 11.4718 196.542 11.5396 196.542 11.608C196.542 11.6208 196.542 11.6323 196.542 11.6463C196.542 11.6604 196.542 11.6591 196.542 11.6655C196.542 11.6719 196.542 11.6731 196.542 11.677C196.541 11.6846 196.541 11.6923 196.542 11.6999C196.542 11.732 196.544 11.7639 196.548 11.7957C196.549 11.7995 196.549 11.8034 196.548 11.8072C196.555 11.8413 196.563 11.875 196.574 11.908C196.605 12.0027 196.663 12.0862 196.741 12.1478C196.819 12.2094 196.914 12.2464 197.013 12.254C197.187 12.2659 197.362 12.2689 197.537 12.2629C198.798 12.2474 200.05 12.4786 201.223 12.9433C202.654 13.496 203.887 14.4632 204.764 15.7211C204.776 15.7698 204.792 15.8172 204.813 15.8628C204.839 15.9183 204.868 15.9724 204.9 16.0249C205.759 17.5057 206.199 19.1589 206.372 20.9128C206.442 21.629 206.443 22.3553 206.47 23.083C206.47 23.0932 206.47 23.1008 206.47 23.1098C206.47 23.1174 206.47 23.1251 206.47 23.1328C206.483 23.5042 206.655 23.7225 206.928 23.743C206.94 23.7436 206.953 23.7436 206.965 23.743H206.98C207.047 23.7437 207.113 23.7297 207.173 23.7021C207.356 23.6179 207.471 23.4136 207.482 23.1226C207.491 22.8902 207.482 22.6553 207.482 22.4217C207.482 22.3885 207.482 22.3554 207.482 22.3222C207.52 20.6307 207.755 18.984 208.367 17.4304L208.382 17.3908C209.106 15.5983 210.487 14.1496 212.242 13.3403C213.159 12.9114 214.235 12.4723 214.972 12.3752C215.592 12.2948 216.22 12.2935 216.844 12.2616C216.855 12.2623 216.867 12.2623 216.878 12.2616C216.898 12.2605 216.919 12.2579 216.939 12.254L217.008 12.2399L217.063 12.2233C217.082 12.2233 217.098 12.2093 217.116 12.2016C217.134 12.194 217.153 12.1838 217.17 12.1736C217.182 12.1658 217.194 12.1572 217.206 12.148C217.224 12.1358 217.242 12.1222 217.258 12.1072C217.267 12.0982 217.273 12.0893 217.281 12.0804C217.298 12.0628 217.313 12.044 217.327 12.0242L217.342 11.9936C217.355 11.9722 217.367 11.9501 217.377 11.9272C217.384 11.9055 217.391 11.88 217.397 11.8557C217.404 11.8314 217.405 11.8302 217.407 11.8161C217.415 11.774 217.419 11.7313 217.42 11.6885C217.421 11.6488 217.419 11.6091 217.414 11.5697Z" fill="#072365"/>
<path d="M214.973 12.3865C215.593 12.306 216.221 12.3048 216.845 12.2729L214.973 12.3865Z" fill="#072365"/>
</g>
<defs>
<clipPath id="clip0_4619_33479">
<rect width="217" height="26" fill="white"/>
</clipPath>
</defs>
</svg>
