<svg width="100" height="97" viewBox="0 0 100 97" fill="none" xmlns="http://www.w3.org/2000/svg">
<path d="M65.9866 5.77985C68.7122 6.85667 71.4598 8.02777 74.2734 8.92308C74.7215 9.04665 75.2381 9.20156 75.798 9.37717C78.9864 10.3773 83.5771 12.0488 84.8965 12.4258C87.0705 13.0469 92.753 17.0545 93.8965 18.9258C106.852 40.1259 95.5389 67.6002 79.9697 84.4456C66.7722 98.7249 40.334 100.903 24.2088 90.1933C14.611 83.8187 6.73804 72.5253 2.64787 61.8553C-1.16228 51.9158 -0.484348 38.2478 2.30473 28.0842C4.79565 19.0071 10.0488 11.7279 17.6318 6.123C21.2044 3.48244 25.2365 0.734544 29.7563 0.232354C33.4053 -0.173093 37.3082 0.035245 40.9656 0.232354C49.3909 0.68641 58.1556 2.68613 65.9866 5.77985Z" fill="#EE5151"/>
<path fill-rule="evenodd" clip-rule="evenodd" d="M29.8787 32.1213C28.7071 30.9497 28.7071 29.0503 29.8787 27.8787C31.0503 26.7071 32.9497 26.7071 34.1213 27.8787L50 43.7574L65.8787 27.8787C67.0503 26.7071 68.9498 26.7071 70.1213 27.8787C71.2929 29.0503 71.2929 30.9497 70.1213 32.1213L54.2426 48L70.1213 63.8787C71.2929 65.0503 71.2929 66.9497 70.1213 68.1213C68.9498 69.2929 67.0503 69.2929 65.8787 68.1213L50 52.2426L34.1213 68.1213C32.9498 69.2929 31.0503 69.2929 29.8787 68.1213C28.7071 66.9497 28.7071 65.0503 29.8787 63.8787L45.7574 48L29.8787 32.1213Z" fill="white"/>
</svg>
