<svg width="21" height="22" viewBox="0 0 21 22" fill="none" xmlns="http://www.w3.org/2000/svg">
<path d="M10.0037 0.996277C7.35055 0.996277 4.80607 2.05023 2.93002 3.92629C1.05396 5.80235 0 8.34683 0 11C0 13.6531 1.05396 16.1976 2.93002 18.0737C4.80607 19.9497 7.35055 21.0037 10.0037 21.0037C12.6568 21.0037 15.2013 19.9497 17.0774 18.0737C18.9535 16.1976 20.0074 13.6531 20.0074 11C20.0074 8.34683 18.9535 5.80235 17.0774 3.92629C15.2013 2.05023 12.6568 0.996277 10.0037 0.996277ZM10.0037 18.9992C7.88179 18.9973 5.84734 18.1535 4.34692 16.6531C2.8465 15.1526 2.0027 13.1182 2.00074 10.9963C2.00368 8.875 2.84791 6.84151 4.34823 5.34189C5.84855 3.84226 7.88243 2.99898 10.0037 2.99702C12.1243 2.99996 14.1573 3.84368 15.6568 5.34319C17.1563 6.84271 18 8.87564 18.003 10.9963C18.001 13.1176 17.1577 15.1514 15.6581 16.6518C14.1585 18.1521 12.125 18.9963 10.0037 18.9992Z" fill="#C0C0C0"/>
<path d="M7.63632 6.20168C8.34172 5.90965 9.096 5.75377 9.85937 5.74225C11.5896 5.74225 13.2606 6.55366 13.2606 8.70631C13.2606 10.218 12.1491 11.4592 10.1298 11.7445V12.8078H8.76267L8.58482 10.6144C10.0002 10.6144 11.6711 10.1846 11.6711 8.70631C11.6711 7.84673 11.0672 7.17982 9.74451 7.17982C9.01436 7.21161 8.29505 7.36825 7.6178 7.64295L7.63632 6.20168ZM9.57408 16.2536C9.41955 16.2585 9.26568 16.2311 9.12233 16.1732C8.97897 16.1153 8.84928 16.0281 8.74153 15.9172C8.63378 15.8063 8.55035 15.6742 8.49657 15.5292C8.4428 15.3842 8.41985 15.2297 8.42921 15.0753C8.41548 14.9186 8.43518 14.7608 8.487 14.6123C8.53881 14.4637 8.62156 14.3279 8.72978 14.2137C8.83799 14.0995 8.96921 14.0096 9.11476 13.95C9.2603 13.8903 9.41686 13.8622 9.57408 13.8675C9.72953 13.8634 9.88406 13.8926 10.0273 13.9532C10.1705 14.0138 10.2991 14.1043 10.4044 14.2188C10.5097 14.3332 10.5892 14.4688 10.6378 14.6166C10.6863 14.7643 10.7026 14.9208 10.6856 15.0753C10.6999 15.228 10.6815 15.3819 10.6317 15.5268C10.5818 15.6718 10.5016 15.8044 10.3964 15.9159C10.2912 16.0274 10.1635 16.1152 10.0217 16.1734C9.87985 16.2316 9.72727 16.259 9.57408 16.2536Z" fill="#C0C0C0"/>
</svg>
