<svg width="64" height="64" viewBox="0 0 64 64" fill="none" xmlns="http://www.w3.org/2000/svg">
<path fill-rule="evenodd" clip-rule="evenodd" d="M50.542 29.3333H55.9997C55.7481 27.0971 55.1808 24.9026 54.3109 22.8156C53.0973 19.9038 51.3185 17.258 49.076 15.0294C46.8335 12.8008 44.1713 11.033 41.2414 9.82689C38.3115 8.62078 35.1712 8 31.9998 8C28.8285 8 25.6882 8.62078 22.7583 9.82689C19.8283 11.033 17.1661 12.8008 14.9237 15.0294C12.6812 17.258 10.9023 19.9038 9.68873 22.8156C8.81886 24.9027 8.25158 27.0971 8 29.3333H13.4576C13.6801 27.8054 14.0935 26.3074 14.6906 24.8746C15.6322 22.6156 17.0122 20.563 18.752 18.8341C20.4917 17.1051 22.5571 15.7336 24.8301 14.7979C27.1032 13.8622 29.5395 13.3806 31.9998 13.3806C34.4602 13.3806 36.8965 13.8622 39.1695 14.7979C41.4426 15.7336 43.508 17.1051 45.2477 18.8341C46.9874 20.563 48.3675 22.6156 49.309 24.8746C49.9062 26.3074 50.3195 27.8054 50.542 29.3333Z" fill="url(#paint0_linear_4430_35173)"/>
<path fill-rule="evenodd" clip-rule="evenodd" d="M13.458 34.6667H8.00033C8.25191 36.9029 8.81919 39.0974 9.68906 41.1844C10.9027 44.0962 12.6815 46.742 14.924 48.9706C17.1665 51.1992 19.8287 52.967 22.7586 54.1731C25.6885 55.3792 28.8288 56 32.0002 56C35.1715 56 38.3118 55.3792 41.2417 54.1731C44.1717 52.967 46.8339 51.1992 49.0763 48.9706C51.3188 46.742 53.0976 44.0962 54.3113 41.1844C55.1811 39.0974 55.7484 36.9029 56 34.6667H50.5424C50.3199 36.1946 49.9065 37.6926 49.3094 39.1254C48.3678 41.3844 46.9878 43.437 45.248 45.166C43.5083 46.8949 41.4429 48.2664 39.1699 49.2021C36.8968 50.1379 34.4605 50.6195 32.0002 50.6195C29.5398 50.6195 27.1035 50.1379 24.8305 49.2021C22.5574 48.2664 20.492 46.8949 18.7523 45.166C17.0126 43.437 15.6325 41.3844 14.691 39.1254C14.0938 37.6926 13.6805 36.1946 13.458 34.6667Z" fill="url(#paint1_linear_4430_35173)"/>
<defs>
<linearGradient id="paint0_linear_4430_35173" x1="50.6667" y1="29.3333" x2="7.85064" y2="29.3333" gradientUnits="userSpaceOnUse">
<stop stop-color="#0E46CA"/>
<stop offset="1" stop-color="#F4FAFE"/>
</linearGradient>
<linearGradient id="paint1_linear_4430_35173" x1="13.3333" y1="34.6667" x2="56.1494" y2="34.6667" gradientUnits="userSpaceOnUse">
<stop stop-color="#0E46CA"/>
<stop offset="1" stop-color="#F4FAFE"/>
</linearGradient>
</defs>
</svg>
