<svg width="343" height="340" viewBox="0 0 343 340" fill="none" xmlns="http://www.w3.org/2000/svg">
<path d="M190.348 143.188C189.54 143.285 188.845 142.903 188.224 142.445C184.999 141.614 182.416 139.119 179.648 137.355C174.165 133.316 168.94 128.946 164.003 124.269C161.842 124.683 159.614 125.201 157.405 124.973C157.312 124.948 157.228 124.899 157.162 124.83C157.096 124.761 157.05 124.676 157.03 124.583C153.188 121.059 149.495 114.05 148.825 108.882C147.436 107.696 151.758 106.366 152.469 105.529C158.238 101.41 163.438 96.5736 169.146 92.3687L169.013 92.4726C169.29 92.2579 169.556 92.0369 169.834 91.8217C173.094 89.2197 176.353 86.6096 179.637 84.0381L179.507 84.1416C190.754 75.1498 201.882 66.0092 213.093 56.9728C213.866 56.4871 214.755 55.0449 215.736 55.8938C215.823 55.8698 215.915 55.8656 216.004 55.8815C216.093 55.8975 216.178 55.9331 216.251 55.9858C221.032 56.9325 224.595 64.1394 227.09 67.9002L227.032 67.818C227.155 67.9923 227.239 68.1909 227.278 68.4004C228.811 68.1109 232.592 65.3561 232.332 68.5544C234.548 71.2579 235.837 74.5281 237.354 77.6379C239.083 81.3061 239.1 84.9943 234.621 86.3338C234.708 86.4614 234.747 86.6157 234.729 86.7688C234.712 86.922 234.64 87.0641 234.527 87.1696C237.451 92.3942 240.853 98.3003 239.762 104.469C240.242 106.963 234.782 106.623 233.118 107.319C229.148 108.081 225.168 108.797 221.208 109.608C210.288 111.806 199.44 114.453 188.704 117.426L188.843 117.394C185.921 118.239 182.987 119.088 180.054 119.862C183.873 124.158 187.928 128.24 191.935 132.365C193.229 133.655 195.183 134.998 195.065 137.014C194.627 139.475 193.04 142.679 190.348 143.188ZM167.33 123.535L167.62 123.784C167.633 123.76 167.648 123.737 167.666 123.716L167.477 123.498L167.33 123.535ZM215.758 108.221C221.391 107.005 227.065 105.979 232.725 104.903C228.463 101.638 225.336 97.2109 222.377 92.8252L222.485 92.9749L222.121 92.4608C222.154 92.5105 222.19 92.5618 222.226 92.611C219.267 88.3044 216.515 83.7501 214.719 78.84C214.721 78.8501 214.724 78.8602 214.726 78.8703C214.652 78.6614 214.578 78.4546 214.506 78.2453C214.502 78.2342 214.499 78.2227 214.498 78.211C214.498 78.211 214.501 78.2251 214.503 78.2312C214.504 78.2373 214.499 78.215 214.497 78.209C212.566 72.8994 210.152 67.3023 211.08 61.5438C200.061 70.4794 189.312 79.7101 178.142 88.4548L178.275 88.3509C176.031 90.1342 173.806 91.9409 171.556 93.717L171.689 93.6131L171.484 93.7747L171.615 93.6713L171.308 93.9124L171.44 93.8085C171.137 94.0533 170.833 94.3 170.522 94.5335C169.989 94.9542 169.453 95.3698 168.914 95.7803C172.445 102.139 176.718 108.181 181.12 114.002C181.144 114.039 181.172 114.076 181.196 114.113C181.198 114.12 181.2 114.127 181.202 114.135C181.7 114.871 182.238 115.569 182.771 116.275C182.844 116.376 182.908 116.484 182.961 116.596C183.961 116.325 184.957 116.048 185.952 115.768L185.862 115.789C195.746 112.928 205.742 110.508 215.757 108.217L215.758 108.221ZM231.136 88.47C229.082 89.5828 226.951 90.5557 224.961 91.7859C228.082 96.1738 231.068 101.516 236.239 103.72C237.584 98.801 235.255 93.8375 233.051 89.5105L233.054 89.5226C232.787 88.945 232.355 88.4192 232.269 87.7861C231.896 88.0149 231.521 88.2488 231.135 88.466L231.136 88.47ZM216.45 76.0907C218.264 81.2509 221.065 86.0369 224.122 90.5682C227.103 87.9724 230.621 86.0889 233.843 83.816C231.035 80.1956 227.9 75.3154 228.151 70.6159C224.286 72.0817 220.275 73.0074 216.311 74.1482C216.295 74.2594 216.242 74.3619 216.159 74.4391C216.077 74.5164 215.97 74.5638 215.857 74.5738C216.055 75.0735 216.258 75.5789 216.449 76.0866L216.45 76.0907ZM232.785 77.4183C233.688 79.1143 234.833 80.8299 236.191 82.1663C235.902 78.6767 232.496 72.7439 230.224 69.996C229.434 72.2861 231.416 74.4637 232.304 76.4643L232.22 76.3027C232.297 76.4531 232.376 76.603 232.451 76.7519C232.425 76.6983 232.397 76.6451 232.369 76.5899L232.785 77.4183ZM215.645 57.7498C210.965 61.6307 213.565 68.2389 215.247 73.035C218.281 71.283 221.728 70.6013 224.935 69.2718C222.657 65.9063 219.671 59.0413 215.933 57.3679C215.861 57.5104 215.763 57.6385 215.644 57.7457L215.645 57.7498Z" fill="#0E46CA"/>
<path d="M114.75 121.244C113.743 121.548 112.098 120.997 113.14 119.811C118.001 118.006 120.798 114.845 113.381 114.757C110.814 114.595 109.972 111.748 109.124 109.783C109.131 109.798 109.138 109.813 109.147 109.827C109.127 109.789 109.105 109.751 109.087 109.713C108.889 109.106 107.825 108.164 108.588 107.648C108.084 105.162 111.379 111.149 111.704 111.51C112.165 112.356 112.66 113.179 113.772 112.995L113.745 113.001C120.831 112.947 120.694 119.26 114.75 121.244Z" fill="#231F20"/>
<path d="M100.452 129.093C100.399 129.085 100.35 129.059 100.313 129.02C100.276 128.982 100.253 128.932 100.247 128.879V128.879C100.667 127.027 101.44 125.272 102.525 123.707C103.271 123.298 102.864 124.302 102.584 124.577C102.263 125.078 101.971 125.596 101.711 126.131L101.728 126.095L101.716 126.117L101.575 126.427L101.558 126.464C101.283 127.096 101.043 127.743 100.84 128.401C100.838 128.391 100.848 128.378 100.851 128.364L100.8 128.528C100.725 128.708 100.757 129.102 100.452 129.093Z" fill="#231F20"/>
<path d="M103.905 127.12C102.924 127.022 105.729 122.046 106.045 121.316C107.617 120.428 105.566 123.554 105.444 124.006L105.442 123.993L105.42 124.039C104.866 124.855 104.716 126.693 103.905 127.12Z" fill="#231F20"/>
<path d="M97.4753 131.019C96.5192 131.112 98.504 124.897 99.278 125.641C99.5775 126.425 98.384 127.52 98.2568 128.415C98.0261 129.159 97.6545 129.937 97.659 130.715C97.6715 130.779 97.6596 130.845 97.6258 130.902C97.5919 130.958 97.5384 130.999 97.4753 131.019V131.019Z" fill="#231F20"/>
<path d="M121.098 117.102C121.108 116.393 122.27 111.671 123.09 112.024C123.518 112.723 121.99 114.767 121.902 115.781C121.66 116.109 121.74 117.916 121.098 117.102Z" fill="#231F20"/>
<path d="M123.865 116.285C122.762 116.195 124.211 114.377 124.248 113.75C124.627 113.19 124.597 111.745 125.426 111.786C125.53 111.847 125.606 111.946 125.638 112.061C125.67 112.176 125.655 112.299 125.597 112.404C124.807 113.568 124.722 115.248 123.865 116.285Z" fill="#231F20"/>
<path d="M93.0647 123.261C91.613 122.207 92.2664 120.191 92.7426 118.782C93.8383 116.004 96.8343 114.794 99.6654 114.628C101.834 114.278 104.872 115.852 104.419 118.323C103.366 119.611 101.393 120.105 99.9173 120.88C98.048 121.719 96.2448 122.67 94.1363 122.715C94.1253 122.834 94.0843 122.947 94.0172 123.046C93.95 123.144 93.8588 123.224 93.7519 123.279C93.6451 123.333 93.5261 123.36 93.406 123.357C93.2859 123.354 93.1685 123.321 93.0647 123.261V123.261ZM93.722 121.985C97.0649 121.039 99.9619 119.117 103.123 117.734C100.818 113.907 92.0516 117.515 93.6213 121.961C93.6556 121.965 93.6894 121.973 93.722 121.985Z" fill="#231F20"/>
<path d="M93.7131 123.336C93.5709 123.37 93.4209 123.349 93.2937 123.277C93.1666 123.206 93.0719 123.089 93.0291 122.95C92.9863 122.812 92.9985 122.663 93.0634 122.533C93.1282 122.404 93.2408 122.303 93.3779 122.253C96.1905 121.375 99.0223 119.799 101.58 118.241C104.73 118.654 97.2189 122.215 96.3911 122.455C95.5571 122.902 94.679 123.283 93.7131 123.336Z" fill="#231F20"/>
<path d="M91.0156 119.287C90.8501 119.174 90.9196 118.97 91.0123 118.835C92.1676 114.9 96.7271 112.177 100.774 113.267C101.182 113.311 101.388 113.824 101.018 114.063C100.376 114.089 99.6814 113.709 98.9849 113.777L99.0344 113.776C97.8079 113.743 96.5956 114.1 95.4894 114.6L95.5323 114.59C93.6356 115.466 92.1652 117.047 91.4403 118.988C91.3606 119.15 91.2268 119.418 91.0156 119.287Z" fill="#231F20"/>
<path d="M116.188 111.231C114.452 111.203 114.507 108.952 114.532 107.699C114.614 105.688 116.243 103.934 117.94 102.983C120.303 101.808 124.954 102.503 124.428 105.888C123.709 107.382 121.708 107.792 120.504 108.862C119.099 109.664 117.786 110.888 116.188 111.231ZM116.389 109.757C116.468 109.749 116.548 109.759 116.622 109.786C116.696 109.813 116.763 109.857 116.818 109.914C118.759 108.337 120.718 106.786 122.915 105.57L122.876 105.597L122.96 105.541L122.943 105.545L123.128 105.413C122.302 103.349 118.825 103.897 117.469 105.18C116.316 106.093 115.591 107.366 115.851 108.866C115.917 109.207 115.878 109.912 116.389 109.757V109.757Z" fill="#231F20"/>
<path d="M119.035 107.665C117.295 107.377 117.001 104.784 118.521 104.009C119.215 102.619 121.194 102.929 121.733 104.277C122.497 105.961 120.918 108.115 119.035 107.665Z" fill="#231F20"/>
<path d="M98.4542 119.427C96.4282 118.607 97.0305 115.2 99.2769 115.331C102.615 115.598 101.62 120.503 98.4542 119.427Z" fill="#231F20"/>
<path d="M84.9305 119.738C84.3374 119.966 83.5316 119.913 83.2043 119.292C82.4681 117.292 84.7451 115.637 85.9382 114.299C88.5704 111.781 91.7497 109.873 95.0665 108.355C101.067 105.785 108.185 107.211 98.0856 111.227L98.1707 111.186C93.6622 113.468 89.8539 116.921 85.5359 119.508C85.5019 119.779 85.1406 119.964 84.9305 119.738Z" fill="#231F20"/>
<path d="M102.067 109.01C101.429 109.052 101.037 108.325 101.198 107.766C98.4419 107.876 95.6407 109.078 93.2546 110.397C94.2659 111.497 89.8374 111.187 94.9513 108.478L94.9125 108.487C97.2421 107.399 100.159 105.032 102.769 106.397C103.595 107.17 103.194 108.802 102.067 109.01Z" fill="#231F20"/>
<path d="M95.0738 148.397C95.0415 148.317 95.0093 148.238 94.9811 148.157L94.9947 148.213C94.8214 147.737 94.6705 147.256 94.5012 146.779C94.5045 146.797 94.5087 146.815 94.5139 146.832C94.339 146.269 94.0004 145.753 93.8586 145.184L93.8635 145.205C93.8565 145.147 93.8591 145.089 93.8714 145.032V145.032C94.4398 144.014 94.7975 145.806 95.0536 146.213C95.1944 146.93 96.1155 147.925 95.5675 148.563C95.5247 148.587 95.4772 148.602 95.4282 148.606C95.3792 148.611 95.3298 148.605 95.2831 148.59C95.2365 148.574 95.1937 148.549 95.1577 148.516C95.1216 148.482 95.093 148.442 95.0738 148.397V148.397Z" fill="#231F20"/>
<path d="M96.8743 148.653C96.6194 147.697 95.2906 145.677 95.927 144.877C96.279 144.752 96.3833 145.156 96.4177 145.415C96.5324 145.91 96.6756 146.398 96.8467 146.877V146.877C96.9953 147.241 98.0043 149.422 96.8743 148.653Z" fill="#231F20"/>
<path d="M120.616 144.701C119.96 144.67 118.321 144.143 119.166 143.316C119.712 143.187 120.146 143.872 120.763 143.844C121.214 143.964 121.085 144.746 120.616 144.701Z" fill="#231F20"/>
<path d="M121.534 143.36C121.199 143.012 120.577 142.933 120.37 142.533C120.438 141.614 121.466 142.535 121.864 142.742C122.2 142.945 121.911 143.588 121.534 143.36Z" fill="#231F20"/>
<path d="M41.9258 193.691C40.3264 193.492 45.7053 186.025 46.434 187.574C46.9995 188.662 45.2698 189.264 44.749 190.032C43.9024 190.945 43.0527 191.908 42.5168 193.034C42.5397 193.118 42.5411 193.207 42.5208 193.292C42.5005 193.377 42.4592 193.455 42.4006 193.52C42.3419 193.585 42.2678 193.635 42.185 193.665C42.1021 193.694 42.013 193.703 41.9258 193.691V193.691Z" fill="#231F20"/>
<path d="M37.6917 186.777C35.7873 186.799 38.0307 181.529 39.4467 182.578C40.2487 183.715 38.0489 184.429 38.3086 185.708C38.3012 185.678 38.3082 185.645 38.3091 185.612C38.354 186.084 38.2505 186.666 37.6917 186.777Z" fill="#231F20"/>
<path d="M35.6049 105.557C34.6879 105.133 28.8157 105.178 29.6318 103.924C29.9912 103.141 33.3874 104.052 34.458 103.833C35.2111 103.901 36.715 103.633 36.54 104.804C36.5014 105.02 36.3857 105.214 36.2141 105.352C36.0424 105.491 35.8262 105.563 35.6049 105.557V105.557Z" fill="#231F20"/>
<path d="M46.9163 84.7472C45.8253 83.809 44.7723 82.6525 43.3819 82.1651C43.2148 85.1472 40.802 78.8836 46.5068 83.0886L46.4583 83.0488L46.5229 83.1019L46.5042 83.0871L46.5543 83.1244L46.6635 83.2096L46.6606 83.1975L46.7091 83.2373L46.6924 83.222L46.7404 83.2598L46.7197 83.2455L46.8602 83.3532C46.8436 83.3379 46.8259 83.3272 46.8092 83.3119C47.0766 83.5242 47.3454 83.7426 47.6148 83.963C48.0342 84.3487 47.382 85.1455 46.9163 84.7472Z" fill="#231F20"/>
<path d="M94.8861 57.5108C93.5425 55.8763 94.2909 53.2609 93.7619 51.2781C93.6098 50.2463 95.3523 49.7238 95.4614 50.9259C95.7388 52.7439 95.6671 54.6015 96.1151 56.392C96.2763 57.0501 95.5518 57.7892 94.8861 57.5108Z" fill="#231F20"/>
<path d="M133.522 65.8374C132.043 64.8393 134.589 62.6344 135.304 61.7224C136.807 60.8806 136.906 62.747 135.733 63.4064C134.739 63.9805 134.716 65.9208 133.522 65.8374Z" fill="#231F20"/>
<path d="M239.292 41.3418C236.999 40.5785 243.796 31.5699 245.284 30.943C248.345 28.8558 247.689 33.2389 250.216 30.923C256.025 25.5817 261.812 20.2135 267.906 15.189C269.811 14.3825 270.317 16.8748 268.02 18.0556L268.068 18.0208L267.908 18.1461L268.026 18.0521C263.163 21.8461 258.489 25.8561 253.875 29.9352C251.951 31.5213 248.976 35.4164 246.702 32.3017C245.145 33.0111 244.146 34.5196 243.084 35.7912L243.095 35.7757C241.969 37.3035 240.829 38.8434 239.97 40.5367C239.986 40.6347 239.98 40.7349 239.954 40.8305C239.927 40.9262 239.88 41.0152 239.816 41.0914C239.752 41.1677 239.672 41.2294 239.581 41.2726C239.491 41.3158 239.392 41.3394 239.292 41.3418V41.3418Z" fill="#231F20"/>
<path d="M253.545 67.1494C252.842 67.326 252.882 66.3022 253.535 66.4107C257.019 64.467 263.507 53.6608 266.336 61.701C272.878 60.3934 278.875 56.8182 285.11 54.4576C286.784 54.1051 290.618 50.697 291.15 53.7019C291.116 55.4461 288.841 55.411 287.648 56.107C285.027 57.1765 282.384 58.2041 279.753 59.2524C276.05 60.2635 268.273 65.1214 264.97 63.5311C264.168 62.6528 264.378 60.314 262.557 61.1007C259.161 62.46 257.065 66.0427 253.545 67.1494Z" fill="#231F20"/>
<path d="M299.466 107.873C290.976 108.116 282.356 108.298 274.17 105.636C273.116 105.406 272.018 104.732 272.306 103.513C272.201 102.47 273.309 100.573 271.962 100.114C268.262 99.3753 264.595 100.999 260.984 101.515C259.74 100.696 264.564 99.672 265.123 99.2048C269.54 97.6833 275.99 96.3631 274.234 103.346C278.684 104.664 283.356 105.109 287.984 105.293L287.823 105.29C291.844 105.426 295.843 104.72 299.859 104.797C301.68 105.029 301.211 108.004 299.466 107.873Z" fill="#231F20"/>
<path d="M119.015 322.243C111.013 324.169 102.92 325.617 94.6871 326.096C90.6517 326.78 86.5238 326.732 82.5059 325.953C74.7785 324.937 71.1606 317.058 68.6249 310.652C68.6273 310.662 68.6302 310.674 68.6332 310.686C68.5826 310.549 68.5316 310.409 68.4831 310.271C68.4953 310.322 68.5178 310.37 68.5361 310.419C63.5998 296.594 59.2179 282.595 54.7359 268.62C48.4187 248.117 40.4014 224.611 50.4498 204.034C54.948 196.169 62.7154 190.815 69.9805 185.619C77.5255 180.186 85.4276 175.239 92.8259 169.601C91.156 166.151 90.0589 162.471 88.586 158.943C88.5899 158.959 88.5928 158.971 88.5967 158.987C88.0568 157.424 87.4143 155.897 86.6731 154.417C86.6481 154.409 86.6235 154.4 86.5995 154.389C81.7947 157.51 77.4245 151.89 75.8061 147.858C68.3285 150.495 63.1479 142.506 66.2095 136.124C62.9671 133.687 58.9783 131.853 56.9987 128.141C54.6567 124.244 55.9951 119.243 60.8892 118.467C58.5205 113.047 60.5063 106.157 66.1498 103.691C64.6353 94.1805 70.4859 84.0886 81.1092 84.6871C82.6879 78.4099 89.172 70.1074 96.2176 74.9076C96.4981 66.7631 110.862 61.8403 112.842 71.4968C117.914 66.496 127.164 68.6445 124.568 76.819C128.521 76.6735 129.555 81.9067 128.213 84.8097C126.842 88.802 123.125 91.4713 119.055 92.3299C119.673 93.098 120.177 93.942 120.722 94.7571C123.491 98.626 125.511 102.95 127.889 107.058C129.299 109.439 130.925 111.68 132.405 114.032C133.293 115.14 134.331 116.69 132.975 117.873C125.825 123.215 117.403 126.889 109.231 130.48C113.681 136.579 121.657 133.995 127.183 130.89L127.163 130.894L127.246 130.854L127.276 130.846L127.262 130.85C129.147 130.219 135.652 125.178 136.905 126.213C143.808 132.719 135.859 138.457 129.561 140.747C130.876 145.47 133.404 149.746 134.944 154.392C143.322 155.531 151.964 153.422 160.357 154.947C174.915 156.421 187.373 171.483 197.121 181.261C201.153 185.697 205.207 190.115 209.282 194.514L209.569 194.809C209.532 194.771 209.495 194.733 209.459 194.694C209.644 194.887 209.829 195.079 210.011 195.277L209.9 195.16C216.074 202.054 222.647 208.563 229.099 215.201C229.099 215.201 229.082 215.182 229.074 215.175L229.146 215.252C230.391 216.487 231.75 218.079 233.639 218.161C234.237 215.164 231.681 212.618 230.67 209.946L230.357 209.346C230.01 208.678 229.665 208.014 229.321 207.348C229.326 207.37 229.331 207.39 229.351 207.409C222.526 195.354 214.51 183.975 206.399 172.747C202.491 167.691 198.836 162.436 194.711 157.569C191.822 155.068 189.148 152.325 186.166 149.931L186.217 149.97L186.132 149.905L186.15 149.915L186.095 149.875C181.724 145.996 177.531 140.366 177.889 134.313C177.885 134.344 177.884 134.374 177.883 134.406L177.888 134.294L177.891 134.304C177.626 131.27 180.39 125.87 182.537 130.992C183.132 133.346 183.212 135.813 184.081 138.102C184.166 138.269 184.188 138.461 184.141 138.643C184.094 138.825 183.981 138.983 183.825 139.089C181.879 139.476 182.076 132.088 180.94 130.821C179.025 129.28 179.56 138.518 180.713 139.277C182.125 141.622 183.361 144.106 185.321 146.067C188.906 149.277 192.717 152.243 196.271 155.497C204.685 165.353 212.328 175.893 219.454 186.694L219.457 186.706C219.565 186.856 219.67 187.008 219.783 187.159C223.496 192.432 226.912 197.929 230.086 203.535C230.056 203.482 230.03 203.427 230 203.374C230.059 203.484 230.116 203.596 230.174 203.709C230.172 203.694 230.168 203.68 230.163 203.666C231.349 206.557 240.019 221.305 232.178 219.847C229.13 218.858 227.288 216.022 225.001 213.976C219.249 208.622 213.856 202.907 208.541 197.132C208.536 197.114 208.511 197.098 208.494 197.083L208.413 196.995L208.439 197.025C203.843 192.132 199.361 187.121 194.808 182.185C193.214 180.524 191.581 178.9 190.022 177.208L190.02 177.198C190.018 177.193 190.016 177.187 190.016 177.181V177.181L190.013 177.167C184.229 171.117 178.099 165.231 170.774 161.037L170.793 161.045L170.769 161.034L170.076 160.645L170.018 160.611L170.101 160.658C162.982 155.965 154.112 157.194 146.001 156.835C145.719 161.737 145.085 166.606 144.572 171.48C144.074 174.032 144.449 176.946 143.331 179.298C142.41 180.182 141.375 178.947 140.549 178.518C138.419 177.114 136.226 175.826 134.023 174.543C133.104 173.842 129.773 172.576 132.608 172.024C132.925 171.779 133.289 172.158 133.171 172.492C136.255 173.577 139.251 174.889 141.957 176.725C142.528 170.077 143.405 163.455 143.811 156.795C141.666 156.858 139.491 156.799 137.387 156.39L137.432 156.399C136.915 156.309 136.402 156.191 135.897 156.046C133.48 164.422 129.854 172.483 127.192 180.812C127.19 180.807 127.189 180.802 127.189 180.797L127.152 180.913L127.148 180.899L127.09 181.088C127.094 181.076 127.097 181.064 127.099 181.051C126.201 183.647 125.869 186.636 124.102 188.825C129.568 199.57 133.397 210.995 137.32 222.354C137.317 222.34 137.313 222.326 137.309 222.31C141.166 232.644 145.668 242.758 148.757 253.346C151.375 263.463 155.226 273.203 157.708 283.354C163.89 281.844 170.126 280.63 176.417 279.711C180.193 279.441 183.98 277.925 187.766 278.396C187.998 278.307 188.16 278.542 188.332 278.661L188.316 278.648C188.354 278.673 188.389 278.712 188.436 278.718C188.492 278.707 188.55 278.71 188.604 278.728C188.658 278.745 188.707 278.776 188.746 278.818C194.368 277.595 199.743 274.598 205.676 275.371C199.882 260.497 195.858 245.049 191.8 229.644C190.324 224.692 188.548 219.837 186.81 214.973C186.478 213.162 184.223 210.91 185.8 209.277C187.311 208.177 188.235 210.411 189.204 211.237C190.894 213.044 192.683 214.752 194.45 216.485C204.654 227.029 213.934 238.669 226.135 247.091C228.864 248.892 231.875 250.673 235.127 251.284C241.864 251.707 248.41 249.111 254.362 246.251C257.45 244.454 260.084 241.91 260.959 238.377C262.466 234.449 263.151 230.187 262.242 226.034C259.738 212.993 252.638 201.658 244.677 191.193C244.68 191.201 244.682 191.209 244.683 191.218L244.525 190.992L244.53 191.013C241.529 186.427 238.206 182.074 234.978 177.65L235.076 177.789C230.14 171.077 224.969 164.426 218.81 158.759C214.748 154.918 210.17 151.681 205.717 148.329C203.913 146.319 202.082 144.34 200.182 142.414L200.287 142.528C194.594 136.209 197.829 138.148 197.541 132.767C196.536 132.854 195.921 134.189 194.91 133.911C193.455 132.843 195.756 129.868 194.423 128.527C193.238 128.854 192.312 130.326 191.042 130.101C189.332 128.809 192.118 125.777 191.108 123.912C191.115 123.942 191.137 123.971 191.153 123.999C191.109 123.878 191.037 123.769 190.943 123.68C190.849 123.591 190.736 123.525 190.612 123.487L190.7 123.504C190.555 123.472 190.407 123.458 190.258 123.463L190.345 123.466L190.096 123.482L190.18 123.462C189.288 123.588 188.478 124.063 187.795 124.624C188.333 125.062 187.231 125.767 186.927 126.11C185.391 126.951 186.457 124.513 187.031 124.099C190.662 120.039 193.597 122.707 192.538 127.407C195.806 125.141 196.728 128.724 196.263 131.351C199.857 129.521 199.603 134.958 198.726 136.988C200.769 140.542 204.375 142.851 206.831 146.108C211.93 150.104 217.283 153.847 221.928 158.397C232.695 168.974 240.866 181.756 249.748 193.838C249.714 193.788 249.679 193.741 249.645 193.691C252.792 198.131 255.829 202.665 258.377 207.468C258.433 207.574 258.486 207.681 258.542 207.787L258.539 207.775C262.163 215.506 265.923 224.915 264.813 233.54C263.697 239.052 261.875 244.911 256.707 247.97C251.322 251.255 244.994 253.578 238.683 254.26C230.864 255.33 224.518 249.527 218.639 245.284L218.679 245.315C208.036 236.707 199.58 225.857 189.866 216.301C194.75 229.195 197.398 242.732 201.584 255.839C203.202 260.745 204.773 265.663 206.469 270.543C206.819 272.126 208.436 274.032 207.401 275.568C212.426 276.479 217.975 277.769 221.671 281.485C224.739 285.309 221.011 286.574 217.675 284.859C222.014 286.433 221.823 290.946 216.699 289.527C219.927 293.373 213.938 292.878 211.587 292.442C214.285 296.05 207.273 294.774 205.468 295.265C200.641 295.853 195.751 296.064 191.125 297.669C188.477 301.562 173.95 303.828 168.942 305.722C167.479 306.185 166.019 306.653 164.555 307.112L164.703 307.064C158.356 309.003 152.188 311.429 145.923 313.583C142.892 314.453 139.829 315.191 136.997 316.585C131.369 319.428 124.986 320.248 119.015 322.243ZM95.4554 324.054C108.48 322.995 121.131 319.567 133.559 315.777C138.822 312.973 144.723 311.91 150.187 309.629C162.363 304.533 175.492 302.187 187.766 297.45C187.31 293.868 186.781 290.301 186.557 286.691C186.404 284.791 186.164 282.885 186.303 280.986C167.404 283.343 149.054 288.515 130.426 292.279C126.905 292.775 123.358 293.06 119.845 293.606C114.604 294.273 107.419 297.503 104.203 291.465C100.064 284.343 97.3517 276.527 95.0634 268.66C92.1339 258.051 88.5882 247.637 85.1294 237.189C83.9589 234.134 82.5297 231.153 81.8297 227.945C81.5733 226.884 83.1628 226.041 83.6437 227.217C83.8197 227.686 83.988 228.159 84.1599 228.629C84.2174 228.786 84.2743 228.941 84.3297 229.099L84.318 229.051C88.9628 240.32 93.5337 251.686 96.6478 263.488C98.6952 270.081 100.327 276.832 103.265 283.115C104.681 286.022 105.482 289.551 107.996 291.746L107.948 291.719C107.978 291.735 108.007 291.754 108.036 291.769L107.981 291.737C112.06 293.641 116.693 290.884 120.978 290.696C133.037 289.636 144.684 286.453 156.418 283.673C155 277.484 153.149 271.419 151.113 265.402C148.81 257.963 146.991 250.379 144.181 243.096C144.187 243.122 144.194 243.149 144.21 243.173C140.653 233.748 136.515 224.545 133.189 215.025C133.195 215.047 133.2 215.071 133.206 215.094L132.933 214.34L132.972 214.446C129.971 205.973 126.268 197.744 123.474 189.213C121.872 189.362 120.541 187.93 119.169 187.271C116.871 185.924 114.711 184.363 112.459 182.945C106.298 179.042 100.127 175.197 94.3608 170.74C94.2278 170.8 94.0798 170.822 93.9348 170.801C93.7898 170.78 93.654 170.718 93.5439 170.623C92.3422 172.105 90.9161 173.4 89.5508 174.733C93.5587 179.819 97.55 184.935 101.155 190.312C102 188.908 104.144 180.021 106.067 181.35C106.583 181.7 106.652 182.405 106.397 182.931C105.277 185.331 104.372 187.817 103.483 190.307C102.922 191.447 102.946 193.129 101.741 193.826C99.9719 194.186 99.2464 191.363 98.2209 190.311C94.9208 185.436 91.517 180.623 88.8242 175.383C79.5551 183.068 68.8454 188.994 59.8456 197.043L59.8672 197.025L59.8353 197.054L59.821 197.057L59.8332 197.054L59.7782 197.104C45.8527 208.568 47.1027 228.765 50.3639 244.732L50.339 244.629L50.4366 245.033C50.4435 245.061 50.4508 245.092 50.4576 245.12L50.4537 245.104C54.2138 260.981 59.6859 276.424 64.5093 292.008C68.3273 300.966 71.2162 320.228 81.0905 323.735L80.9789 323.693C81.6278 323.897 82.2901 324.056 82.9611 324.171L82.8436 324.15C85.8279 324.626 88.8653 325.089 91.873 324.563L91.9037 324.556L92.6444 324.447L92.6567 324.444C93.5892 324.316 94.5209 324.175 95.4554 324.054ZM194.346 294.239C199.316 293.249 204.483 293.022 209.536 293.215C208.269 292.672 206.955 292.241 205.612 291.925C205 291.512 205.17 290.438 205.903 290.259C209.199 290.183 212.436 291.029 215.736 290.989C213.403 289.173 209.96 288.686 207.038 288.505C206.178 288.281 206.255 286.828 207.116 286.652C208.941 286.59 210.802 286.557 212.61 286.867C214.826 287.007 217.065 288.556 219.236 288.027C216.502 285.469 212.495 284.649 208.933 283.84C207.009 283.412 207.842 281.424 209.608 281.874C211.934 282.028 214.25 282.304 216.546 282.7C218.065 282.943 219.422 283.943 220.996 283.842C217.042 279.104 209.728 278.339 203.858 277.887C198.688 277.779 193.85 280.421 188.675 280.054C188.687 280.265 188.703 280.491 188.72 280.707C188.706 280.647 188.709 280.58 188.704 280.515C189.131 285.419 189.463 290.385 190.685 295.164C191.879 294.775 193.115 294.507 194.346 294.239ZM94.9086 169.645C104.615 174.774 113.746 180.897 123.026 186.752C126.827 176.868 130.136 166.755 133.638 156.771C131.8 151.143 128.52 145.996 127.221 140.2C127.474 136.937 142.422 135.585 136.159 127.839C133.087 129.6 130.136 131.574 126.937 133.107L126.121 133.513L126.099 133.518C119.128 137.135 110.978 138 106.855 130.133C107.113 128.151 111.571 127.448 113.175 126.362C115.132 125.42 117.116 124.541 119.074 123.603L118.943 123.668C123.266 121.191 128.245 119.595 132.108 116.457C131.992 116.258 131.859 116.072 131.727 115.885C127.602 110.197 124.414 103.945 120.999 97.8436C121.029 100.149 117.846 100.254 116.304 101.258C114.219 101.776 113.173 103.92 111.158 104.477C111.348 105.002 110.693 105.001 110.645 104.51C105.407 102.503 117.359 94.5561 119.946 96.1214C119.587 95.5438 119.259 94.9486 118.961 94.3379V94.3379C118.656 93.7373 118.331 93.1435 118.059 92.5266C114.62 92.4845 111.34 90.4531 108.449 88.7482C108.316 94.526 102.504 97.7842 97.2809 95.4577C97.9382 101.922 91.022 105.934 85.1419 104.517C85.9905 108.028 83.5222 111.822 79.6932 111.74C80.949 114.11 79.4437 116.964 76.6898 117.066C79.9323 122.177 83.5399 127.091 87.1818 131.941C88.496 134.035 90.6724 135.87 91.0678 138.382C89.8903 142.386 84.312 136.148 82.9696 134.689C82.9617 134.679 82.9531 134.671 82.9439 134.663L82.9615 134.682C81.9516 133.355 80.1614 135.155 79.1696 135.825C76.6932 138.255 82.6668 141.239 84.5856 142.035C87.0582 144.14 89.5543 149.908 87.926 152.968C90.5981 158.284 92.5171 163.917 94.8322 169.392C94.8691 169.473 94.8948 169.558 94.9086 169.645Z" fill="#231F20"/>
<path d="M194.661 157.226C193.476 154.8 198.22 153.182 199.494 151.638C201.102 150.043 203.002 148.796 204.748 147.367C205.123 146.852 205.937 146.527 206.347 147.186C208.728 148.153 201.131 152.717 200.301 153.765C198.806 154.346 195.981 158.622 194.661 157.226Z" fill="#231F20"/>
<path d="M186.618 126.934C185.471 126.656 186.499 124.922 187.271 124.779C188.496 124.94 187.382 126.839 186.618 126.934Z" fill="#231F20"/>
<path d="M191.609 129.513C190.247 129.698 191.861 125.668 190.502 123.894L190.56 123.974C189.532 123.209 188.279 125.264 187.7 126.014C187.21 126.51 187.106 127.48 186.4 127.69C183.78 128.469 188.267 122.337 189.348 122.33C192.491 120.432 193.373 129.009 191.609 129.513Z" fill="#231F20"/>
<path d="M96.3517 298.643C96.0746 297.907 97.024 297.724 97.5149 297.484L97.5046 297.486L97.5574 297.463L97.6023 297.453L97.6575 297.44L97.6453 297.443L97.7216 297.41C98.3882 297.271 99.3008 296.238 99.9052 296.772C99.9177 297.038 99.9643 297.499 99.7027 297.651C99.4603 297.729 99.3726 297.447 99.4113 297.258C98.617 297.565 97.059 299.522 96.3517 298.643Z" fill="#231F20"/>
<path d="M96.3839 292.02C95.2604 292.038 89.7079 292.414 90.1767 290.689C90.2147 290.486 90.3308 290.306 90.5005 290.186C90.6702 290.066 90.8804 290.016 91.0867 290.047C92.8355 290.381 94.5939 290.961 96.3926 290.716C97.1812 290.707 97.1121 291.985 96.3839 292.02Z" fill="#231F20"/>
<path d="M112.152 270.811C111.543 270.741 110.278 271.29 110.074 270.52C110.233 269.703 111.536 270.175 112.158 269.925C112.695 269.912 112.647 270.784 112.152 270.811Z" fill="#231F20"/>
<path d="M116.17 197.457C114.981 196.794 117.053 194.587 117.1 193.502C117.267 193.07 117.249 192.288 117.89 192.303C117.968 192.317 118.042 192.348 118.107 192.392C118.172 192.437 118.226 192.494 118.267 192.561C118.307 192.629 118.333 192.703 118.342 192.781C118.351 192.859 118.343 192.937 118.319 193.012C117.841 194.058 117.37 197.338 116.17 197.457Z" fill="#231F20"/>
<path d="M186.591 203.451C185.455 203.22 186.813 201.69 187.022 201.086C187.53 200.509 187.783 198.871 188.759 199.149C189.598 200.018 187.194 201.916 186.959 202.99C186.912 203.181 186.825 203.409 186.591 203.451Z" fill="#231F20"/>
<path d="M193.034 207.852C192.8 207.135 193.842 204.458 194.782 204.877C195.53 205.567 194.308 206.422 194.106 207.133C193.924 207.45 194.079 207.915 193.689 208.086C193.631 208.118 193.567 208.136 193.501 208.141C193.436 208.146 193.37 208.138 193.308 208.115C193.246 208.093 193.189 208.058 193.142 208.013C193.095 207.968 193.058 207.913 193.034 207.852V207.852Z" fill="#231F20"/>
<path d="M231.834 232.172C231.027 231.047 232.24 229.469 232.572 228.305L232.655 228.121L232.676 228.076L232.693 228.038L232.721 227.973C233.641 225.382 235.158 226.873 234.005 227.457L233.986 227.487L234.001 227.46L233.969 227.514C233.373 228.74 232.865 230.098 232.72 231.454C232.808 231.927 232.279 232.457 231.834 232.172Z" fill="#231F20"/>
<path d="M237.43 231.762C235.95 231.422 237.368 229 237.499 228.024L237.503 228.042C237.909 227.282 238.036 225.462 239.163 225.602C239.52 225.757 239.601 226.233 239.426 226.55C238.319 227.785 238.488 231.702 237.43 231.762Z" fill="#231F20"/>
<path d="M276.913 226.564C276.721 223.985 276.305 221.369 274.926 219.132L274.963 219.203L274.842 218.971L274.877 219.037C274.11 218.106 275.249 216.867 275.634 218.183C276.977 220.094 277.882 222.272 278.287 224.563C278.283 224.545 278.278 224.525 278.273 224.507C278.283 224.545 278.292 224.584 278.302 224.624C278.313 224.67 278.324 224.717 278.335 224.763C278.332 224.746 278.328 224.728 278.323 224.711C278.44 225.537 279.007 226.819 277.958 227.259C277.842 227.296 277.72 227.307 277.6 227.291C277.479 227.274 277.364 227.231 277.264 227.164C277.163 227.097 277.079 227.008 277.018 226.904C276.957 226.8 276.921 226.684 276.913 226.564Z" fill="#231F20"/>
<path d="M270.088 239.151C269.158 238.64 270.016 237.673 270.296 237.011C270.966 235.409 271.185 233.67 271.286 231.953C271.284 231.971 271.284 231.989 271.284 232.007C271.364 230.827 271.328 229.643 271.179 228.47C271.265 228.828 270.775 229.133 270.7 228.669C270.708 228.308 270.809 227.876 271.1 227.643C272.698 227.998 272.224 234.753 271.897 236.233L271.917 236.128C271.6 237.087 271.472 239.334 270.088 239.151Z" fill="#231F20"/>
<path d="M264.547 246.712C262.926 246.487 264.642 244.924 265.181 244.374C265.561 244.024 265.788 243.443 266.299 243.269C267.931 243.524 265.339 245.646 265.026 246.324L265.079 246.258C264.938 246.445 264.797 246.666 264.547 246.712Z" fill="#231F20"/>
<path d="M221.67 282.195C221.566 282.188 221.466 282.151 221.384 282.087C220.187 282.853 219.071 281.186 220.181 280.336C222.409 279.247 224.923 278.663 227.225 277.682C236.632 274.743 246.364 272.896 255.795 270.018L255.879 269.998C260.541 268.861 265.053 267.221 269.698 266.03C271.044 265.979 274.265 264.019 274.791 265.857C274.733 267.869 270.407 268.007 268.88 268.797C258.253 272.749 247.087 274.94 236.331 278.502L236.486 278.466C231.979 279.618 227.485 280.833 222.949 281.876C222.839 282.519 222.115 282.31 221.67 282.195Z" fill="#231F20"/>
<path d="M67.0942 129.349C65.5005 128.369 63.3728 126.995 63.2495 124.974C63.248 124.637 63.7793 124.565 63.7703 124.938C63.7568 125.146 63.8068 125.353 63.9138 125.532C63.9119 125.519 63.9088 125.506 63.9045 125.494C64.7154 126.9 66.2276 127.721 67.6103 128.499C68.0638 128.802 67.5992 129.642 67.0942 129.349Z" fill="white"/>
<path d="M67.5813 113.639C65.6304 113.612 67.0541 110.233 67.8147 109.402C68.4655 108.975 69.3748 107.294 70.1969 107.87C70.2875 107.993 70.3295 108.144 70.3152 108.296C70.3008 108.447 70.231 108.588 70.1189 108.692C69.1855 109.621 67.9857 110.396 67.6422 111.737L67.6684 111.666C67.5333 112.018 67.4826 112.395 67.5201 112.769C68.0517 112.725 68.0495 113.556 67.5813 113.639Z" fill="white"/>
<path d="M80.2025 100.894C79.4067 100.954 77.2844 101.139 77.0081 100.281C77.1658 99.2533 78.551 100.131 79.2384 99.9533C79.7171 99.9941 80.6367 99.5976 80.6721 100.343C80.6726 100.475 80.6256 100.603 80.5396 100.704C80.4536 100.804 80.3341 100.872 80.2025 100.894V100.894Z" fill="white"/>
<path d="M82.9341 93.3884C81.6226 92.5749 84.574 88.5531 85.7796 88.294C86.9022 87.9863 86.5761 89.3723 85.766 89.5785L85.8353 89.5344C84.6575 90.2033 84.0024 91.462 83.5323 92.6813C83.5582 92.7687 83.5619 92.8612 83.5431 92.9504C83.5242 93.0396 83.4834 93.1228 83.4243 93.1927C83.3651 93.2627 83.2895 93.3171 83.204 93.3512C83.1185 93.3853 83.0258 93.3981 82.9341 93.3884V93.3884Z" fill="white"/>
<path d="M98.9876 82.8248C97.8899 82.3237 101.397 80.0563 101.943 79.7204C102.456 79.5393 103.738 79.5954 103.592 80.3601C103.566 80.4776 103.496 80.5807 103.395 80.6485C103.295 80.7163 103.172 80.7436 103.052 80.7248C101.48 80.2184 100.073 81.9705 98.9876 82.8248Z" fill="white"/>
<path d="M109.635 83.3428C108.948 83.4218 107.9 83.5006 107.446 82.9181C107.453 82.7796 107.599 82.7751 107.669 82.8655L107.738 82.8939C107.988 82.9639 108.246 82.9984 108.506 82.9966V82.9966L108.529 82.9913C108.675 82.988 108.821 82.9742 108.966 82.95L108.976 82.9475C109.866 82.8741 110.584 82.0896 111.427 82.0293C112.218 82.8823 110.2 83.1839 109.635 83.3428Z" fill="white"/>
<path d="M113.734 76.1638C113.436 75.5487 114.284 75.3101 114.637 74.9833C115.285 74.589 115.728 73.8565 116.415 73.5639C116.943 73.5291 117.032 74.2554 116.645 74.5154C115.907 74.8669 114.474 76.7513 113.734 76.1638Z" fill="white"/>
<path d="M94.442 92.2205C92.6588 91.4756 93.7799 89.7225 94.3942 90.8609C94.5883 91.0115 94.7967 91.1432 95.0165 91.2542C95.5513 91.5806 95.0128 92.5619 94.442 92.2205Z" fill="white"/>
<path d="M154.444 113.646C153.803 112.281 155.158 110.396 155.536 109.004C155.568 108.927 155.616 108.858 155.677 108.801C155.738 108.744 155.811 108.701 155.89 108.673C155.969 108.646 156.053 108.636 156.137 108.643C156.22 108.651 156.301 108.675 156.374 108.716C157.299 109.602 155.349 111.828 155.367 113.077C155.36 113.047 155.367 113.013 155.368 112.981C155.366 113.004 155.366 113.027 155.367 113.05L155.362 113.029C155.446 113.526 154.879 114.015 154.444 113.646Z" fill="white"/>
<path d="M157.637 112.475C156.606 112.046 158.083 110.862 158.134 110.128C158.553 109.508 158.433 107.875 159.433 108.002C159.569 108.07 159.674 108.184 159.729 108.324C159.785 108.464 159.786 108.619 159.733 108.76C159.116 109.952 158.847 111.798 157.637 112.475Z" fill="white"/>
<path d="M161.374 110.701C161.519 108.958 161.991 106.995 162.932 105.528C164.132 105.031 164.061 106.622 163.581 107.273L163.621 107.172C163.171 108.23 162.808 109.322 162.535 110.437C162.68 111.215 161.526 111.536 161.374 110.701Z" fill="white"/>
</svg>
