<svg viewBox="0 0 40 40" fill="none" xmlns="http://www.w3.org/2000/svg">
<rect width="40" height="40" rx="20" fill="black" fill-opacity="0.3"/>
<g clip-path="url(#clip0_2075_27334)">
<path d="M10 16.994C9.99947 16.2062 10.1544 15.426 10.4558 14.6982C10.7572 13.9703 11.1992 13.3091 11.7565 12.7523C12.3139 12.1955 12.9756 11.7542 13.7037 11.4535C14.4319 11.1528 15.2122 10.9987 16 11H24C27.313 11 30 13.695 30 16.994V29H16C12.687 29 10 26.305 10 23.006V16.994ZM28 27V16.994C27.9974 15.9345 27.5749 14.9192 26.8251 14.1706C26.0754 13.422 25.0595 13.0011 24 13H16C15.4748 12.9987 14.9546 13.1011 14.4691 13.3012C13.9836 13.5014 13.5424 13.7955 13.1708 14.1665C12.7991 14.5376 12.5044 14.9784 12.3035 15.4636C12.1026 15.9488 11.9995 16.4689 12 16.994V23.006C12.0026 24.0655 12.4251 25.0808 13.1749 25.8294C13.9246 26.578 14.9405 26.999 16 27H28ZM22 19H24V21H22V19ZM16 19H18V21H16V19Z" fill="white"/>
</g>
<defs>
<clipPath id="clip0_2075_27334">
<rect width="24" height="24" fill="white" transform="translate(8 8)"/>
</clipPath>
</defs>
</svg>
