<svg viewBox="0 0 40 40" fill="none" xmlns="http://www.w3.org/2000/svg">
<rect width="40" height="40" rx="20" fill="#EE5151"/>
<path fill-rule="evenodd" clip-rule="evenodd" d="M16.0405 14.6263C15.65 14.2357 15.0168 14.2357 14.6263 14.6263C14.2357 15.0168 14.2357 15.65 14.6263 16.0405L18.5858 20L14.6263 23.9596C14.2357 24.3501 14.2357 24.9833 14.6263 25.3738C15.0168 25.7643 15.65 25.7643 16.0405 25.3738L20 21.4143L23.9596 25.3738C24.3501 25.7643 24.9833 25.7643 25.3738 25.3738C25.7643 24.9833 25.7643 24.3501 25.3738 23.9596L21.4143 20L25.3738 16.0405C25.7643 15.65 25.7643 15.0168 25.3738 14.6263C24.9833 14.2357 24.3501 14.2357 23.9596 14.6263L20 18.5858L16.0405 14.6263Z" fill="white"/>
</svg>
