<svg viewBox="0 0 100 100" fill="none" xmlns="http://www.w3.org/2000/svg">
<path d="M65.9866 7.77985C68.7122 8.85667 71.4598 10.0278 74.2734 10.9231C74.7215 11.0467 75.2381 11.2016 75.798 11.3772C78.9864 12.3773 83.5771 14.0488 84.8965 14.4258C87.0705 15.0469 92.753 19.0545 93.8965 20.9258C106.852 42.1259 95.5389 69.6002 79.9697 86.4456C66.7722 100.725 40.334 102.903 24.2088 92.1933C14.611 85.8187 6.73804 74.5253 2.64787 63.8553C-1.16228 53.9158 -0.484348 40.2478 2.30473 30.0842C4.79565 21.0071 10.0488 13.7279 17.6318 8.123C21.2044 5.48244 25.2365 2.73454 29.7563 2.23235C33.4053 1.82691 37.3082 2.03525 40.9656 2.23235C49.3909 2.68641 58.1556 4.68613 65.9866 7.77985Z" fill="#0E46CA"/>
<path d="M30.4111 46.863C35.3244 51.9996 39.8297 57.7209 45.1286 62.431C45.3817 62.656 45.3875 62.0772 45.3875 61.9873C45.3875 60.9963 46.9969 58.8287 47.3975 57.9274C48.749 54.8865 50.4962 52.6153 52.3975 49.9274C54.2584 47.2963 55.2774 45.8307 57.0357 43.1282C58.9003 40.2622 60.5712 36.8144 62.8414 34.2718C63.2684 33.7935 65.7624 29.9099 66.3543 29.2242" stroke="white" stroke-width="6" stroke-linecap="round"/>
</svg>
