<svg width="100" height="97" viewBox="0 0 100 97" fill="none" xmlns="http://www.w3.org/2000/svg">
<path d="M65.9866 5.77985C68.7122 6.85667 71.4598 8.02777 74.2734 8.92308C74.7215 9.04665 75.2381 9.20156 75.798 9.37717C78.9864 10.3773 83.5771 12.0488 84.8965 12.4258C87.0705 13.0469 92.753 17.0545 93.8965 18.9258C106.852 40.1259 95.5389 67.6002 79.9697 84.4456C66.7722 98.7249 40.334 100.903 24.2088 90.1933C14.611 83.8187 6.73804 72.5253 2.64787 61.8553C-1.16228 51.9158 -0.484348 38.2478 2.30473 28.0842C4.79565 19.0071 10.0488 11.7279 17.6318 6.123C21.2044 3.48244 25.2365 0.734544 29.7563 0.232354C33.4053 -0.173093 37.3082 0.035245 40.9656 0.232354C49.3909 0.68641 58.1556 2.68613 65.9866 5.77985Z" fill="#0E46CA"/>
<path d="M30.4111 44.863C35.3244 49.9996 39.8297 55.7209 45.1286 60.431C45.3817 60.656 45.3875 60.0772 45.3875 59.9873C45.3875 58.9963 46.9969 56.8287 47.3975 55.9274C48.749 52.8865 50.4962 50.6153 52.3975 47.9274C54.2584 45.2963 55.2774 43.8307 57.0357 41.1282C58.9003 38.2622 60.5712 34.8144 62.8414 32.2718C63.2684 31.7935 65.7624 27.9099 66.3543 27.2242" stroke="white" stroke-width="6" stroke-linecap="round"/>
</svg>
