<svg width="20" height="20" viewBox="0 0 20 20" fill="red" xmlns="http://www.w3.org/2000/svg">
<path d="M10 20C11.9778 20 13.9112 19.4135 15.5557 18.3147C17.2002 17.2159 18.4819 15.6541 19.2388 13.8268C19.9957 11.9996 20.1937 9.98891 19.8078 8.0491C19.422 6.10929 18.4696 4.32746 17.0711 2.92893C15.6725 1.53041 13.8907 0.577999 11.9509 0.192146C10.0111 -0.193707 8.00042 0.00432673 6.17316 0.761203C4.3459 1.51808 2.78412 2.79981 1.6853 4.4443C0.586488 6.08879 -2.76756e-06 8.02219 -2.94047e-06 10C-3.05527e-06 11.3132 0.258654 12.6136 0.7612 13.8268C1.26375 15.0401 2.00034 16.1425 2.92893 17.0711C3.85751 17.9997 4.9599 18.7362 6.17316 19.2388C7.38642 19.7413 8.68678 20 10 20ZM7.29 9.29L10.29 6.29C10.383 6.19627 10.4936 6.12188 10.6154 6.07111C10.7373 6.02034 10.868 5.9942 11 5.9942C11.132 5.9942 11.2627 6.02034 11.3846 6.07111C11.5064 6.12188 11.617 6.19627 11.71 6.29C11.8037 6.38296 11.8781 6.49356 11.9289 6.61542C11.9797 6.73728 12.0058 6.86799 12.0058 7C12.0058 7.13201 11.9797 7.26272 11.9289 7.38458C11.8781 7.50644 11.8037 7.61704 11.71 7.71L9.41 10L11.71 12.29C11.8983 12.4783 12.0041 12.7337 12.0041 13C12.0041 13.2663 11.8983 13.5217 11.71 13.71C11.5217 13.8983 11.2663 14.0041 11 14.0041C10.7337 14.0041 10.4783 13.8983 10.29 13.71L7.29 10.71C7.19627 10.617 7.12187 10.5064 7.0711 10.3846C7.02034 10.2627 6.9942 10.132 6.9942 10C6.9942 9.86799 7.02034 9.73728 7.0711 9.61542C7.12187 9.49356 7.19627 9.38296 7.29 9.29Z" fill="black"/>
</svg>
