<svg width="32" height="32" viewBox="0 0 32 32" fill="none" xmlns="http://www.w3.org/2000/svg">
<g clip-path="url(#clip0_4575_33476)">
<path d="M24.0414 22.1561L29.7521 27.8654L27.8654 29.7521L22.1561 24.0414C20.0317 25.7444 17.3894 26.6706 14.6667 26.6667C8.04275 26.6667 2.66675 21.2907 2.66675 14.6667C2.66675 8.04275 8.04275 2.66675 14.6667 2.66675C21.2907 2.66675 26.6667 8.04275 26.6667 14.6667C26.6706 17.3894 25.7444 20.0317 24.0414 22.1561ZM21.3667 21.1667C23.0589 19.4266 24.0039 17.094 24.0001 14.6667C24.0001 9.50941 19.8227 5.33341 14.6667 5.33341C9.50941 5.33341 5.33341 9.50941 5.33341 14.6667C5.33341 19.8227 9.50941 24.0001 14.6667 24.0001C17.094 24.0039 19.4266 23.0589 21.1667 21.3667L21.3667 21.1667ZM16.2374 9.56808C15.8443 9.74568 15.5 10.016 15.2343 10.3559C14.9686 10.6958 14.7893 11.095 14.7119 11.5194C14.6344 11.9438 14.661 12.3807 14.7895 12.7925C14.918 13.2044 15.1445 13.5789 15.4496 13.8839C15.7546 14.189 16.1291 14.4155 16.541 14.544C16.9528 14.6724 17.3897 14.6991 17.8141 14.6216C18.2385 14.5442 18.6377 14.3649 18.9776 14.0992C19.3175 13.8334 19.5878 13.4892 19.7654 13.0961C20.1158 14.2342 20.0752 15.4569 19.6501 16.5693C19.2249 17.6818 18.4397 18.6199 17.4195 19.2342C16.3993 19.8486 15.2029 20.1038 14.0208 19.9592C12.8387 19.8147 11.739 19.2786 10.8969 18.4366C10.0549 17.5945 9.51883 16.4948 9.37427 15.3127C9.22972 14.1306 9.48494 12.9342 10.0993 11.914C10.7136 10.8938 11.6517 10.1086 12.7641 9.68344C13.8766 9.2583 15.0992 9.21768 16.2374 9.56808Z" fill="white"/>
</g>
<defs>
<clipPath id="clip0_4575_33476">
<rect width="32" height="32" fill="white"/>
</clipPath>
</defs>
</svg>
