<svg width="343" height="290" viewBox="0 0 343 290" fill="none" xmlns="http://www.w3.org/2000/svg">
<g clip-path="url(#clip0_4575_33249)">
<path d="M86.4848 164.923C80.2361 165.182 73.8547 166.021 68.1952 168.837C57.0044 174.054 68.8981 179.544 66.0149 182.352C58.9839 188.212 37.222 194.037 33.3055 201.367C32.3205 203.309 35.367 205.218 36.7168 203.545C38.4309 200.755 41.626 199.458 44.3355 197.833C50.0184 194.1 68.1516 187.994 69.9876 182.704C70.9795 179.358 66.9128 177.304 66.6663 174.198C69.8714 169.062 80.6462 167.44 86.3715 167.033C88.6494 168.713 89.9365 164.628 86.4848 164.923Z" fill="white"/>
<path d="M36.4301 152.153C25.1081 155.886 13.6375 159.566 3.00932 165.02C-0.872703 166.884 2.24573 171.789 4.80825 168.96C5.12139 168.283 5.9587 168.036 6.54992 167.642L7.02614 167.382L7.04068 167.37C12.7951 164.448 18.881 162.241 24.8817 159.888C30.3311 157.895 35.815 156.001 41.3335 154.209C44.3597 153.024 48.8163 152.394 49.8155 148.786C50.4311 145.402 45.5509 143.073 46.7942 139.726C53.6214 133.813 66.2452 133.706 74.9713 133.116C75.5099 133.72 76.566 133.373 76.8343 132.676C77.4984 129.941 66.998 131.724 65.2432 131.587C59.9959 132.052 42.641 133.646 43.2534 140.931C45.6168 149.891 51.2896 147.243 36.4301 152.153Z" fill="white"/>
<path d="M71.1373 243.677C78.683 235.363 86.9454 227.675 93.8997 218.822C104.208 207.373 86.4138 208.26 95.8277 201.447C99.9124 198.321 104.534 195.928 109.368 194.196C109.93 194.475 110.408 193.951 110.867 193.695C111.72 193.367 111.269 192.194 110.489 192.142C109.708 192.09 108.952 192.396 108.206 192.583C103.606 193.976 89.7097 199.401 89.6304 204.821C89.6927 207.665 92.2041 209.418 93.7312 211.495C93.6037 215.056 86.1114 221.556 83.7062 224.715C80.4157 228.159 77.1032 231.585 73.7284 234.948C71.6871 237.107 68.9981 238.747 67.4483 241.318C66.3512 243.424 69.6553 245.465 71.1373 243.677Z" fill="white"/>
<path d="M222.846 175.354C222.836 175.391 222.827 175.427 222.819 175.46C223.04 175.5 223.265 175.542 223.489 175.585C224.297 175.732 225.103 175.881 225.907 176.029L225.91 176.03L225.917 176.031L225.924 176.033C231.766 177.154 237.574 178.412 243.361 179.677L243.485 179.704L243.604 179.747C244.03 179.899 244.465 180.023 244.906 180.118C245.827 180.312 246.763 180.423 247.703 180.451L247.714 180.451L247.726 180.452C248.785 180.495 249.86 180.47 251.012 180.443L251.106 180.441C252.271 180.414 253.514 180.388 254.764 180.45L255.811 180.503L256.363 181.393C256.627 181.817 256.885 182.239 257.141 182.657C258.251 184.472 259.316 186.213 260.582 187.754C262.108 189.61 263.786 190.989 265.891 191.642L265.964 191.665L266.035 191.693C270.367 193.409 274.271 191.953 278.689 189.265L280.232 188.326L281.323 189.767C282.795 191.712 284.287 193.656 285.783 195.606C292.286 204.08 298.88 212.672 304.361 222.016L304.398 222.079L304.399 222.081C304.681 221.986 305.104 221.76 305.682 221.353C306.18 221.003 306.671 220.609 307.19 220.193C307.323 220.086 307.458 219.977 307.595 219.868C308.129 219.443 308.797 218.918 309.442 218.572C313.287 215.654 317.028 212.787 320.369 209.519L320.447 209.443L320.533 209.375C326.561 204.648 332.738 200.041 339.095 195.71C340.044 194.959 341.009 194.16 341.994 193.344C344.413 191.34 346.953 189.237 349.68 187.499C349.704 187.36 349.72 187.153 349.697 186.86L349.697 186.859C349.58 185.347 348.66 183.1 347.426 180.656C346.866 179.547 346.281 178.47 345.743 177.481L345.646 177.302C345.102 176.301 344.583 175.343 344.247 174.607C343.87 173.811 343.493 173.017 343.118 172.224C340.253 166.172 337.428 160.206 334.168 154.434L334.137 154.38L334.11 154.323C333.368 152.794 332.55 151.289 331.703 149.753C331.582 149.533 331.461 149.313 331.338 149.091C330.613 147.778 329.871 146.435 329.17 145.073C328.853 144.462 328.547 143.845 328.251 143.222L327.963 142.614L328.1 141.956C328.249 141.241 328.434 140.535 328.654 139.839C329.672 136.578 331.353 133.642 332.999 130.912C333.235 130.519 333.471 130.132 333.704 129.749C335.122 127.415 336.455 125.22 337.463 122.895C337.721 122.213 338.065 121.448 338.379 120.747C338.549 120.369 338.711 120.009 338.846 119.691C339.288 118.653 339.591 117.764 339.685 116.95L339.686 116.943C339.695 116.865 339.702 116.787 339.707 116.709C338.592 115.62 337.273 114.667 335.806 113.645C335.652 113.537 335.496 113.429 335.338 113.319C333.974 112.373 332.495 111.346 331.165 110.165L331.139 110.142L331.114 110.119C327.395 106.58 322.325 104.922 317.073 104.966L317.017 104.966L316.961 104.963C315.086 104.873 313.192 104.929 311.22 105C311.045 105.007 310.869 105.013 310.692 105.02C308.952 105.084 307.147 105.151 305.339 105.115C304.641 105.185 303.987 105.063 303.536 104.962C303.304 104.911 303.07 104.851 302.872 104.8C302.846 104.793 302.821 104.787 302.796 104.78C302.568 104.722 302.385 104.677 302.217 104.643C302.17 104.633 302.128 104.625 302.09 104.619L302.102 104.646L302.147 104.846C302.296 105.513 302.421 106.187 302.522 106.869L302.522 106.869L302.524 106.879C302.925 109.673 303.044 112.5 302.878 115.317L302.874 115.386L302.866 115.454C302.361 119.405 301.053 123.166 299.619 126.656C291.011 148.553 268.28 157.442 246.535 155.645L246.44 155.637L246.347 155.62C244.754 155.334 243.077 155.079 241.369 154.818C238.6 154.396 235.75 153.961 233.048 153.365C232.514 153.254 232.024 153.028 231.691 152.861C231.535 153.548 231.31 154.18 231.082 154.746C230.919 155.151 230.743 155.547 230.584 155.907L230.571 155.937C230.403 156.316 230.253 156.656 230.119 156.991L230.101 157.038L230.08 157.084L230.071 157.103L230.044 157.164L230.041 157.171C229.946 157.384 229.852 157.597 229.757 157.81C227.672 162.503 225.636 167.086 224.131 171.847C223.986 172.458 223.704 173.132 223.492 173.64L223.458 173.722C223.191 174.362 222.973 174.889 222.846 175.354Z" stroke="black" stroke-width="4"/>
<path d="M239.378 72.5519C238.214 70.0726 232.171 73.3327 229.94 73.6141C228.514 73.937 227.804 75.7187 229.392 76.3984C232.404 76.9956 240.12 77.2279 239.378 72.5519ZM236.522 73.7063C236.226 73.8972 235.907 74.0504 235.572 74.1622C235.574 74.0775 235.566 73.9927 235.55 73.9096C235.869 73.821 236.194 73.7531 236.522 73.7063V73.7063Z" fill="#0E46CA"/>
<path d="M244.807 73.5019C248.004 68.5581 239.069 68.8935 236.328 69.8063C233.87 70.2263 225.774 74.3682 229.578 77.2195C232.639 78.0066 242.626 75.9014 244.807 73.5019ZM235.333 74.1958C234.963 74.2619 234.584 74.3306 234.216 74.38C234.58 74.2093 234.951 74.0436 235.333 73.9091C235.323 74.0044 235.323 74.1005 235.333 74.1958Z" fill="#0E46CA"/>
<path d="M214.116 84.1562C215.748 78.3379 205.436 81.0453 203.555 83.6734C201.868 85.2904 202.611 88.5747 205.192 88.5234C208.356 88.0013 212.335 87.0721 214.116 84.1562Z" fill="#0E46CA"/>
<path d="M95.3909 123.932C96.5871 123.599 97.7785 123.163 98.4892 123.066C98.5309 123.061 98.5711 123.054 98.6096 123.051C106.559 121.018 114.673 119.785 122.731 118.237C129.411 116.888 136.029 115.244 142.734 114.03C149.063 112.84 155.418 111.802 161.66 110.218L161.722 110.203C163.536 109.603 165.742 109.619 167.248 108.375C167.311 108.293 167.354 108.197 167.374 108.095C167.394 107.994 167.392 107.889 167.366 107.789C165.729 108.415 163.964 108.635 162.224 108.431C161.931 108.401 161.645 108.367 161.352 108.312C151.744 110.276 141.991 111.434 132.405 113.534L132.228 113.573L132.373 113.543C122.602 115.839 112.673 117.3 102.86 119.366C100.384 119.884 97.9206 120.47 95.4556 121.039C94.4802 121.395 93.2018 121.343 92.2813 121.839C92.045 121.963 91.8349 122.132 91.6627 122.336C91.59 122.653 91.5738 122.98 91.6149 123.303C91.8463 124.694 93.6214 124.425 95.3909 123.932Z" fill="#0E46CA"/>
<path d="M117.784 185.987C118.53 186.641 119.766 186.765 120.434 185.944C120.46 185.921 120.474 185.888 120.497 185.862C121.651 184.322 122.895 182.852 124.222 181.459C128.275 177.155 132.898 173.382 136.863 168.971L136.715 169.129C140.701 164.775 144.891 160.613 149.217 156.597C155.053 151.237 160.185 145.183 165.881 139.682C168.94 136.609 172.316 133.843 175.434 130.83C176.847 129.486 178.182 128.063 179.432 126.567V126.567C180.106 125.677 178.869 124.501 177.94 124.958C175.886 126.673 173.924 128.538 171.891 130.313C171.259 130.876 170.614 131.423 169.962 131.958C160.164 140.424 151.759 150.323 142.089 158.93C136.97 163.813 132.305 169.152 127.034 173.878C126.564 174.384 125.813 175.077 124.928 175.88C123.992 176.732 122.906 177.712 121.85 178.72C120.326 180.175 118.866 181.694 118.006 182.997C117.474 183.802 117.172 184.523 117.225 185.096C117.319 185.442 117.513 185.752 117.784 185.987V185.987Z" fill="#0E46CA"/>
<path d="M90.9597 152.163C91.3066 151.059 92.6275 151.064 93.4672 150.507L94.2574 150.093C95.2068 149.6 96.1533 149.104 97.104 148.616L97.3978 148.464C99.5987 147.424 101.715 146.195 103.851 145.007C105.987 143.818 108.142 142.665 110.405 141.796C110.512 141.778 110.62 141.779 110.726 141.8C110.948 141.837 111.152 141.949 111.302 142.117C111.452 142.286 111.54 142.5 111.551 142.726C111.524 142.86 111.48 142.99 111.421 143.114C110.933 144.173 109.457 144.627 108.572 145.326C105.185 147.537 101.67 149.546 98.1211 151.49C99.0644 154.525 101.973 158.006 102.303 161.324C102.401 162.171 102.289 163.028 101.977 163.821C101.801 164.039 101.608 164.242 101.4 164.429C96.6464 168.684 90.6093 156.056 90.9597 152.163ZM99.1882 162.286C99.686 159.537 96.4363 155.691 95.5207 152.947C95.1594 153.153 94.7981 153.359 94.4495 153.586C95.3535 156.772 96.6982 160.053 99.1817 162.292L99.1882 162.286Z" fill="#0E46CA"/>
<path d="M101.396 164.429C101.661 164.622 101.971 164.743 102.297 164.78C102.622 164.818 102.952 164.77 103.254 164.643L104.09 164.28C104.911 163.935 105.729 163.592 106.545 163.251C110.534 161.605 114.578 160.105 118.647 158.66L118.727 158.632C119.097 158.995 119.522 158.712 119.719 158.327C120.071 157.941 120.812 158.008 121.008 157.448C120.993 155.806 119.203 156.213 117.803 156.617C117.362 156.744 116.961 156.87 116.666 156.929C112.741 158.055 108.784 159.089 104.966 160.547C104.188 160.975 103.186 161.077 102.297 161.329C101.677 161.505 101.113 161.756 100.707 162.248C100.277 163.09 100.698 163.958 101.396 164.429Z" fill="#0E46CA"/>
<path d="M117.78 185.981C118.671 186.282 119.642 186.243 120.506 185.871C121.518 185.429 122.517 184.504 123.463 182.944C123.777 182.485 124.036 181.991 124.234 181.471C124.913 179.738 124.955 177.808 124.931 175.898C124.919 174.929 124.888 173.964 124.916 173.032C125.229 170.875 125.069 168.675 124.447 166.585C124.051 164.329 123.904 162.027 123.169 159.835C119.031 148.927 114.062 137.932 106.295 129.094C104.111 126.729 101.485 124.434 98.4979 123.074C97.072 122.405 95.5396 121.993 93.9709 121.856C93.4153 121.776 92.8511 121.777 92.2956 121.857C90.6728 122.062 88.9291 122.829 89.5059 124.344C89.576 124.521 89.6644 124.691 89.7696 124.851L89.761 124.841C90.164 125.618 91.6035 125.48 91.4678 124.479C92.5938 124.336 93.7367 124.404 94.8374 124.682C101.203 126.254 106.703 134.253 110.74 141.816C110.977 142.258 111.208 142.697 111.431 143.134C113.324 146.795 114.857 150.258 115.962 152.721C116.62 154.004 117.244 155.306 117.817 156.625C118.113 157.299 118.393 157.979 118.658 158.664C119.681 161.247 120.423 163.932 120.871 166.674C121.507 168.666 121.979 170.652 121.785 172.756C121.917 174.668 122.148 176.802 121.85 178.735C121.562 180.607 120.781 182.297 118.907 183.388C118.59 183.293 118.283 183.166 117.99 183.011C115.818 181.842 114.599 179.256 113.65 177.075C112.476 174.312 110.68 171.895 109.279 169.247C108.414 167.873 108.037 166.27 107.325 164.843C107.213 164.656 107.066 164.491 106.893 164.358C106.125 163.761 104.881 163.728 104.354 164.656C104.315 164.945 104.314 165.238 104.352 165.528C104.734 168.646 108.622 173.852 109.911 176.384C111.243 179.83 114.384 184.927 117.78 185.981Z" fill="#0E46CA"/>
<path d="M97.9131 150.719C97.6553 150.012 97.3849 149.31 97.102 148.613C95.0768 143.619 92.4898 138.828 91.0103 133.621C89.441 129.874 88.5564 124.69 94.1505 124.539C94.3544 124.652 94.5898 124.696 94.8208 124.663C94.9862 124.625 95.1334 124.532 95.237 124.397C95.3407 124.263 95.3943 124.097 95.3887 123.928C95.3931 123.801 95.3719 123.675 95.3264 123.557C95.2809 123.439 95.212 123.331 95.1239 123.24C95.0359 123.149 94.9304 123.077 94.8137 123.028C94.6971 122.979 94.5717 122.953 94.4452 122.954C93.4908 122.936 92.5388 123.056 91.6184 123.308C90.8537 123.516 90.1338 123.863 89.4951 124.332C88.8219 124.821 88.2985 125.489 87.9836 126.259C86.2646 131.059 90.4293 140.12 92.1637 144.892C92.9261 146.592 93.5498 148.359 94.2509 150.085C94.4211 150.513 94.6074 150.953 94.7974 151.381C95.5301 152.772 98.1556 152.533 97.9131 150.719Z" fill="#0E46CA"/>
<path d="M107.192 167.35C107.788 166.441 107.031 165.316 106.904 164.353C106.867 163.965 106.747 163.59 106.55 163.254C106.119 162.517 105.352 162.04 104.514 162.677C104.107 163.138 104.035 163.698 104.1 164.288C104.156 164.708 104.245 165.123 104.366 165.529C104.478 165.908 104.567 166.293 104.632 166.683C104.897 167.728 106.478 168.23 107.192 167.35Z" fill="#0E46CA"/>
<path d="M4.80924 168.959C5.12238 168.283 5.95969 168.035 6.55092 167.641L7.02714 167.382L7.04167 167.369C12.796 164.448 18.882 162.24 24.8827 159.888C30.332 157.894 35.816 156.001 41.3345 154.208C44.3606 153.024 48.8173 152.393 49.8165 148.786C50.432 145.401 45.5519 143.072 46.7952 139.726C53.6224 133.813 66.2462 133.706 74.9723 133.116C75.5109 133.72 76.567 133.373 76.8353 132.676C77.4994 129.941 66.999 131.724 65.2442 131.587C59.9969 132.052 42.642 133.646 43.2544 140.931C45.6135 149.886 51.2863 147.238 36.4332 152.142C25.1113 155.875 13.6406 159.555 3.01244 165.009C-0.868839 166.887 2.24528 171.788 4.80924 168.959Z" fill="#0E46CA"/>
<path d="M36.714 203.542C38.4281 200.752 41.6232 199.455 44.3328 197.83C50.0157 194.097 68.1488 187.991 69.9848 182.701C70.9767 179.355 66.9101 177.301 66.6635 174.196C69.8687 169.059 80.6435 167.437 86.3687 167.03C88.6407 168.707 89.9279 164.622 86.4703 164.91C80.2217 165.169 73.8402 166.008 68.1808 168.824C56.9899 174.041 68.8836 179.531 66.0005 182.339C58.9694 188.199 37.2075 194.024 33.2911 201.354C32.3206 203.31 35.3672 205.218 36.714 203.542Z" fill="#0E46CA"/>
<path d="M71.1373 243.677C78.683 235.363 86.9454 227.675 93.8997 218.822C104.208 207.373 86.4138 208.26 95.8277 201.447C99.9124 198.321 104.534 195.928 109.368 194.196C109.93 194.475 110.408 193.951 110.867 193.695C111.72 193.367 111.269 192.194 110.489 192.142C109.708 192.09 108.952 192.396 108.206 192.583C103.606 193.976 89.7097 199.401 89.6304 204.821C89.6927 207.665 92.2041 209.418 93.7312 211.495C93.6037 215.056 86.1114 221.556 83.7062 224.715C80.4157 228.159 77.1032 231.585 73.7284 234.948C71.6871 237.107 68.9981 238.747 67.4483 241.318C66.3512 243.424 69.6553 245.465 71.1373 243.677Z" fill="#0E46CA"/>
<path d="M222.649 81.7249C223.717 80.5323 226.892 77.284 223.515 77.0245C222.57 77.165 222.457 78.3295 221.926 78.9658C220.826 80.526 219.292 82.262 217.314 82.5441C217.891 78.4142 218.018 74.1865 217.152 70.0734C216.597 68.423 216.15 66.3282 214.762 65.1941C214.316 64.9677 213.734 65.4402 213.99 65.9085C216.323 70.7341 215.139 76.2148 214.796 81.3299C214.797 86.4984 220.528 84.2365 222.649 81.7249Z" fill="#231F20"/>
<path d="M239.515 64.5162C240.039 63.3645 242.069 62.5029 241.336 61.0799C241.351 60.1044 240.202 59.4821 239.506 58.9426C236.153 56.3945 231.587 57.1367 228.012 58.8109C225.224 60.4735 223.326 64.1169 223.341 67.3243C225.29 71.8198 237.413 67.8138 239.515 64.5162ZM235.912 64.9274C232.843 66.8375 228.867 68.2052 225.273 67.2343C225.338 66.3935 225.795 65.638 226.112 64.8714L226.099 64.8998L226.159 64.7683L226.119 64.8564C227.794 59.5648 234.968 57.5466 239.488 60.4605C239.211 60.5988 238.998 60.8386 238.893 61.13L238.916 61.0807C238.042 62.4576 237.254 63.9543 235.912 64.9274Z" fill="#231F20"/>
<path d="M231.954 66.1397C233.442 63.7664 231.498 60.3503 228.617 60.8979C227.728 60.6645 226.702 60.7329 226.016 61.414C222.783 65.2936 229.118 70.4052 231.954 66.1397Z" fill="#231F20"/>
<path d="M242.412 58.746C242.893 58.0271 244.602 57.0568 243.615 56.174C243.293 55.9364 242.724 55.9221 242.518 56.3257C241.9 57.4889 241.264 58.763 240.072 59.4349C237.722 60.2628 240.512 60.8979 242.412 58.746Z" fill="#231F20"/>
<path d="M239.765 57.9167C240.575 57.2243 242.658 55.0017 240.5 54.789C240.397 54.8005 240.299 54.8361 240.213 54.8931C240.127 54.95 240.056 55.0265 240.006 55.1163C239.468 56.3378 238.731 57.5401 237.632 58.3079C237.613 58.333 237.598 58.3604 237.586 58.3896C237.699 59.6544 239.313 58.369 239.765 57.9167Z" fill="#231F20"/>
<path d="M236.218 57.7263C236.893 56.6262 240.355 53.3913 237.466 53.0999C236.29 53.638 235.917 55.951 235.065 57.0088C234.172 57.7531 235.669 58.613 236.218 57.7263Z" fill="#231F20"/>
<path d="M231.203 150.547C231.11 150.155 231.151 149.743 231.319 149.376C233.145 141.871 236.66 134.954 238.868 127.601C241.677 120.345 238.841 112.706 236.069 105.893C234.448 108.432 231.711 109.697 229.296 111.303C226.73 112.933 222.948 115.718 220.251 112.898C218.361 110.525 213.919 104.543 215.207 101.559C220.929 99.2619 226.625 95.3779 228.721 89.2674C226.361 91.3132 205.275 98.7416 204.137 95.3119C203.201 94.9869 202.922 93.9072 202.453 93.1369C199.967 88.0727 197.61 82.9178 195.528 77.6729C194.817 77.7213 194.102 77.7167 193.391 77.6592C190.707 77.9008 189.993 75.76 191.886 75.8118C192.918 76.1222 193.98 76.3243 195.053 76.4149C194.874 75.931 194.694 75.4455 194.517 74.9618C193.457 74.7477 191.081 74.9288 191.31 73.3156C191.803 72.2418 193.082 73.1658 193.907 73.253C193.763 72.8349 193.621 72.415 193.483 71.9933C191.183 72.1618 190.805 69.9131 193.037 70.579C192.577 68.324 189.317 59.9031 191.35 58.6586C193.135 53.7334 194.707 48.4957 198.949 45.0679C206.129 38.553 214.265 32.0361 224.242 30.9251L224.301 30.9192L224.327 30.9161C232.805 29.9578 241.322 32.3503 248.061 37.5832C245.937 29.9095 246.894 20.3585 252.989 14.7271C258.21 10.7331 266.086 11.4007 270.642 16.1146C276.416 21.8562 276.856 32.128 271.767 38.4455C267.862 42.6866 261.117 44.0411 255.546 43.7861C259.956 48.4073 263.757 54.1509 264.747 60.5517C268.645 63.0635 268.1 68.8062 265.396 72.011C266.359 76.7687 265.331 81.6944 263.312 86.0466C269.998 100.323 274.872 103.66 290.807 104.08C293.103 104.196 295.4 104.552 297.705 104.308C298.363 104.253 299.182 104.131 299.921 104.192C300.836 104.266 301.627 104.619 301.827 105.719C301.992 106.476 301.454 106.942 300.549 107.212C298.088 107.957 292.914 107.322 291.573 107.32C288.34 107.303 285.113 107.153 281.935 106.493C267.477 104.724 262.205 93.4171 257.428 81.2168C256.786 79.1016 255.242 76.9668 255.536 74.7075C256.446 73.1074 258.828 73.2224 260.262 72.1842C264.579 70.5939 267.252 63.1661 261.552 61.6407C259.238 60.7493 256.993 61.7303 255.043 62.9873C254.379 63.3125 253.051 63.1138 253.048 62.2062C250.928 58.2252 249.904 53.6403 248.208 49.4413L248.147 49.2754C247.842 48.4327 247.469 47.6163 247.031 46.8341C236.047 46.6075 224.84 46.2256 214.148 43.5113C210.001 50.0729 203.284 54.116 196.962 58.4362C195.726 59.2804 194.506 60.1362 193.322 61.0233C193.535 61.8923 193.772 62.7565 194.021 63.6154C194.76 66.1668 195.616 68.6913 196.354 71.2428C196.938 71.323 197.529 71.3461 198.117 71.3117C201.237 65.8944 209.604 66.794 212.688 71.7791C213.287 73.3968 210.789 74.8906 209.873 76.029C206.873 79.0283 202.309 79.0472 198.523 77.7051C199.422 80.2642 200.338 82.8305 201.354 85.358C201.503 85.7415 201.657 86.1213 201.816 86.4973C202.857 89.0488 204.054 91.534 205.4 93.9389C211.486 93.1872 217.426 91.1474 223.251 89.2619C225.203 88.8787 228.52 85.9788 230.114 86.4396C231.805 87.9819 229.816 91.6339 228.914 93.3081C226.249 97.8379 221.995 101.216 217.157 103.21C217.612 105.736 219.136 107.859 220.379 110.047C221.859 113.495 224.112 112.556 226.484 110.586C228.851 108.557 231.697 107.051 233.586 104.515C234.247 103.673 234.708 102.523 235.721 102.032C236.718 101.697 237.734 102.794 237.405 103.769C248.075 124.301 240.429 129.068 234.502 148.521C234.126 149.471 234.018 150.58 233.439 151.432C233.404 151.484 233.367 151.537 233.327 151.587C232.345 152.309 231.416 151.525 231.203 150.547ZM211.014 72.3177C208.604 70.0597 205.235 68.7002 202.104 70.3662L202.083 70.3849C205.123 71.0818 206.882 75.0222 203.735 76.8712C206.816 76.847 209.199 74.5802 211.014 72.3177ZM197.652 72.2338C197.458 72.2533 197.259 72.268 197.066 72.2692L196.692 72.2661C196.82 72.6597 196.949 73.0549 197.081 73.4472C197.239 73.0225 197.502 72.6574 197.652 72.2338ZM234.489 148.672L234.532 148.532L234.547 148.493L234.489 148.672Z" fill="#231F20"/>
<path d="M244.594 73.0089C244.628 72.6889 244.332 72.5034 244.057 72.4416L244.094 72.4575C244.081 72.443 244.055 72.44 244.034 72.4326C242.297 71.8594 240.514 70.741 238.703 70.6801C238.242 70.9403 238.514 71.6487 238.979 71.7213C240.789 72.0933 242.524 72.8718 244.289 73.3301C244.368 73.3173 244.441 73.279 244.496 73.2209C244.551 73.1629 244.586 73.0884 244.594 73.0089V73.0089Z" fill="#231F20"/>
<path d="M239.994 73.9506C239.831 73.6377 239.423 73.4274 239.095 73.6293C237.633 73.3324 236.167 72.436 234.682 72.5073C233.504 73.9234 237.179 73.9057 237.934 74.349L237.898 74.3378L237.973 74.3605C238.526 74.4964 239.082 74.772 239.662 74.7271C239.742 74.7079 239.816 74.6703 239.879 74.6174C239.942 74.5644 239.991 74.4975 240.023 74.4221C240.055 74.3466 240.069 74.2647 240.064 74.1828C240.059 74.1009 240.035 74.0214 239.994 73.9506V73.9506Z" fill="#231F20"/>
<path d="M235.047 76.2001C235.038 76.1119 235.001 76.0287 234.942 75.9626C234.883 75.8964 234.805 75.8506 234.718 75.8318C233.344 75.5644 232.184 74.4587 230.752 74.2678C229.86 74.2228 230.123 75.5453 230.898 75.4687C231.277 75.4671 231.654 75.5217 232.017 75.6309C232.741 75.6816 234.771 77.1422 235.047 76.2001Z" fill="#231F20"/>
<path d="M213.905 84.0523C213.919 82.7993 209.962 82.2797 208.875 81.7408C207.763 81.3612 207.4 82.792 208.468 83.0923C209.939 83.474 211.4 83.9087 212.838 84.4157C213.201 84.7324 213.864 84.5819 213.905 84.0523Z" fill="#231F20"/>
<path d="M210.33 85.6618C210.228 85.2222 209.828 84.9924 209.418 84.9351C209.434 84.9383 209.45 84.9423 209.466 84.9471C209.428 84.9373 209.392 84.926 209.356 84.9147C207.604 84.5261 205.938 83.4772 204.145 83.4204C203.3 83.6142 203.59 84.785 204.324 84.9221C206.2 85.2442 207.981 86.0974 209.835 86.4044C209.917 86.39 209.995 86.359 210.065 86.3134C210.135 86.2677 210.195 86.2084 210.241 86.139C210.287 86.0696 210.319 85.9915 210.334 85.9095C210.349 85.8274 210.348 85.7432 210.33 85.6618V85.6618Z" fill="#231F20"/>
<path d="M206.429 87.1825C206.432 87.0803 206.414 86.9786 206.377 86.8833C206.34 86.7879 206.284 86.7009 206.213 86.6271C206.143 86.5534 206.058 86.4944 205.964 86.4536C205.87 86.4128 205.769 86.3909 205.667 86.3893C205.683 86.3933 205.698 86.3957 205.714 86.3966L205.625 86.3838L205.632 86.3919C204.586 86.5006 201.308 84.4687 201.017 85.7365C201.011 85.9054 201.064 86.0712 201.167 86.2054C201.27 86.3396 201.416 86.4339 201.581 86.4723C202.654 86.4864 206.048 88.5111 206.429 87.1825Z" fill="#231F20"/>
<path d="M240.053 51.0084C237.546 46.7783 229.555 46.0167 225.299 47.816C223.25 48.9676 222.696 51.5231 222.385 53.6788C222.455 54.5764 221.746 55.785 222.799 56.3159C225.038 57.019 224.202 52.8035 224.997 51.5677C226.369 46.8795 236.236 48.3081 239.033 50.9929C239.029 50.9867 239.024 50.9812 239.019 50.9767C239.081 51.5735 240.078 51.7165 240.053 51.0084Z" fill="#231F20"/>
<path d="M206.295 61.9653C206.533 60.5151 204.249 60.539 203.361 59.9072C201.197 58.9371 198.807 58.1226 196.395 58.4931C194.163 58.1981 190.854 62.6849 193.078 63.8393C194.774 64.2462 194.216 61.6009 195.371 60.8991C198.313 59.0645 202.002 60.8317 204.883 62.0177C205.318 62.2971 206.01 62.585 206.295 61.9653Z" fill="#231F20"/>
<path d="M280.919 251.271C279.803 252.394 278.141 254.78 276.597 252.927C275.419 251.177 276.734 249.016 277.339 247.256C279.885 242.996 283.558 239.429 287.245 236.13C291.094 232.408 295.746 229.662 299.896 226.301C300.973 225.443 302.047 224.582 303.119 223.717C311.143 217.271 319.079 210.725 327.077 204.242C335.04 198.075 343.986 193.271 351.683 186.737L352.27 186.234C355.619 182.914 359.72 180.584 363.228 177.475C365.859 175.203 369.346 172.728 365.717 169.458C358.595 163.252 351.12 157.463 343.329 152.122C339.36 149.224 334.968 146.842 330.936 144.183C330.137 143.654 329.351 143.117 328.586 142.561C326.97 141.123 328.939 139.022 330.503 140.435C330.516 140.449 330.535 140.455 330.552 140.467C340.203 146.837 350.068 153.092 358.862 160.705C364.987 166.502 375.832 171.495 365.172 179.474C361.571 182.839 357.361 185.447 353.847 188.933C347.167 194.465 339.837 199.105 332.632 203.901C323.286 210.933 314.316 218.452 305.112 225.666C298.132 231.379 290.231 235.967 284.058 242.63C282.027 245.187 279.409 247.379 278.545 250.651C280.269 248.844 281.788 246.861 283.411 244.967C284.128 243.632 286.07 243.449 286.303 245.187C285.218 249.01 282.173 252.473 282.42 256.659C285.066 253.396 286.238 249.046 289.08 245.944C289.889 245.527 290.884 246.432 290.558 247.276C288.187 250.958 286.272 255.188 285.831 259.577C289.741 256.529 290.904 251.284 293.797 247.404C295.093 246.204 296.421 248.207 295.467 249.394C293.921 252.073 293.018 255.056 291.863 257.91C294.472 255.224 296.177 251.845 298.598 249.006C301.765 245.242 305.585 242.092 309.099 238.672C312.699 235.253 316.789 232.442 320.798 229.54C324.633 226.197 329.152 223.913 333.48 221.304C337.331 218.218 341.185 215.188 345.528 212.804C349.105 210.4 352.402 207.597 356.051 205.294L355.886 205.405C368.575 197.602 380.815 189.116 393.287 181.015C396.258 179.19 399.129 177.207 402.1 175.381C405.597 173.087 410.459 171.034 411.345 166.516C409.216 163.123 405.253 160.984 402.095 158.564C397.865 156.047 394.071 152.9 389.98 150.178C378.985 142.294 367.312 135.439 356.306 127.572C352.11 124.818 347.963 122 344.007 118.903C343.345 118.267 342.396 117.811 341.647 117.215C341.208 116.898 340.859 116.473 340.634 115.981C340.642 115.597 340.867 115.449 341.25 115.481C343.591 115.672 351.882 122.545 353.362 123.061C363.404 129.547 373.283 136.279 383.365 142.7C390.363 147.346 396.992 152.525 404.061 157.058C406.851 158.989 409.494 161.126 411.968 163.449C415.307 166.079 413.354 169.882 410.95 172.388C409.217 174.223 406.989 175.458 404.884 176.804C400.217 179.806 395.641 182.946 390.949 185.915C385.296 189.934 379.633 193.924 373.786 197.659C368.205 201.402 362.426 204.838 356.8 208.524C354.327 210.189 351.96 211.993 349.572 213.776C347.23 215.507 344.668 216.896 342.213 218.455C339.713 220.044 337.663 222.223 335.199 223.859C330.791 226.479 326.272 228.884 322.397 232.296C318.316 235.221 314.237 238.168 310.605 241.649C307.084 245.078 303.209 248.185 300.184 252.074C298.263 254.367 290.722 267.359 289.041 259.165C286.698 262.123 283.613 262.745 284.03 257.99C279.752 263.494 279.222 253.904 280.919 251.271ZM411.389 166.51L411.389 166.54L411.398 166.549L411.41 166.637C411.398 166.595 411.388 166.555 411.389 166.51Z" fill="#231F20"/>
<path d="M200.757 258.594C208.345 267.196 219.841 268.445 227.365 259.011C231.902 253.496 233.796 246.447 235.418 239.628C236.866 234.014 237.971 228.323 239.252 222.67C240.663 214.66 243.103 206.903 244.683 198.936C245.996 193.622 245.748 188.033 247.492 182.805C247.548 182.694 247.596 182.579 247.637 182.461C248.136 180.972 247.395 178.937 245.508 179.679C245.1 180.45 244.754 181.252 244.474 182.077C243.179 185.827 242.974 190.15 242.476 194.067C241.565 200.072 239.905 205.901 238.207 211.717C237.247 216.224 236.344 220.739 235.272 225.221C232.246 237.252 229.349 264.206 212.404 262.588C194.46 258.955 188.596 225.953 184.736 210.693C182.6 200.896 180.254 191.118 178.944 181.164C178.318 176.234 178.835 171.009 177.13 166.284C177.43 165.248 176.432 164.265 175.421 164.328C172.862 163.601 169.921 163.3 167.845 161.515C169.09 160.986 172.593 161.962 172.431 160.002C172.011 158.491 168.193 157.886 166.927 156.391C168.609 155.546 170.607 156.154 172.279 155.536C173.941 153.257 168.124 153.015 167.02 151.741C166.903 151.654 166.802 151.549 166.719 151.43C168.521 149.988 170.933 150.708 172.957 150.133C175.066 148.119 169.419 146.367 168.76 144.551C170.914 143.885 173.326 143.718 175.489 144.431C175.482 144.748 175.455 145.076 175.424 145.399L175.41 145.568C175.143 148.83 174.913 152.077 174.393 155.315C174.522 157.284 172.767 161.03 175.637 161.556C189.549 161.596 187.853 164.506 188.865 150.052C188.9 149.649 188.938 149.242 188.935 148.83C192.702 147.823 182.024 141.452 181.291 139.8C182.056 137.329 185.331 139.223 186.849 139.963C188.664 141.023 189.874 142.774 190.727 144.667C192.601 148.632 192.941 153.072 193.458 157.369C194.537 164.456 195.005 171.611 195.426 178.763C197.214 192.245 199.209 205.751 202.49 218.952L202.661 219.609C203.592 223.811 206.902 234.586 209.999 224.997L210.021 224.928C211.759 219.319 213.828 213.813 215.44 208.163C216.314 204.513 217.262 200.897 218.518 197.356C220.55 192.065 222.822 186.9 224.24 181.391C224.373 180.611 225.148 179.233 225.553 178.022C225.999 176.697 226 175.571 224.233 175.644C223.812 176.252 223.441 176.894 223.126 177.563C221.941 180.042 221.282 182.955 220.328 185.507C218.283 191.1 215.378 196.358 213.809 202.137C212.601 207.705 210.815 213.113 209.261 218.589C208.404 221.4 208.228 224.439 207.002 227.112C202.099 214.088 201.483 199.882 199.184 186.243C197.9 175.675 197.927 164.996 196.181 154.469C196.181 154.46 196.18 154.451 196.178 154.443L196.166 154.348C196.157 154.264 196.145 154.179 196.13 154.09C196.124 154.044 196.116 153.996 196.111 153.948L196.109 153.927C195.465 148.83 193.888 143.55 190.25 139.774C190.455 134.353 190.693 128.89 190.674 123.45C196.638 120.875 197.028 121.473 194.12 115.371C191.853 110.384 190.459 104.628 186.788 100.452C185.154 99.1753 183.247 100.682 181.558 101.057C175.891 102.515 170.378 104.517 165.096 107.035C163.689 107.356 162.755 107.804 162.22 108.414C162.009 108.657 161.85 108.941 161.753 109.249C161.656 109.556 161.623 109.88 161.656 110.201C161.699 110.977 162.004 111.891 162.502 112.981C163.805 115.879 165.221 118.733 166.809 121.489C166.773 121.423 166.737 121.353 166.705 121.292C168.189 123.486 169.404 128.813 171.882 130.304C172.839 130.88 173.982 130.887 175.404 129.926C175.414 130.224 175.422 130.522 175.429 130.82C175.538 134.668 175.557 138.516 175.488 142.365C169.767 139.941 161.234 142.438 169.301 148.359C164.794 148.773 162.884 151.967 167.826 154.024C162.833 154.491 164.451 157.653 167.762 159.354C165.079 159.378 164.913 161.579 166.702 163.12C169.045 165.313 172.466 165.424 175.185 166.899C175.279 177.111 176.09 187.286 178.684 197.203C180.854 207.364 183.143 217.515 186.067 227.491C189.294 238.514 193.011 249.873 200.757 258.594Z" fill="#231F20"/>
<path d="M186.67 109.319C186.882 108.37 185.784 106.429 185.043 105.812C184.529 105.487 183.681 105.764 183.692 106.436C183.652 106.895 184.053 107.138 184.236 107.502C184.674 108.39 185.467 110.646 186.67 109.319Z" fill="white"/>
<path d="M183.048 110.796C183.161 110.144 180.954 106.667 180.185 107.259C179.602 107.727 180.463 108.221 180.635 108.674C181.091 109.453 181.924 112.163 183.048 110.796Z" fill="white"/>
<path d="M179.525 112.463C178.984 111.174 178.06 110.085 177.498 108.82C177.482 108.802 177.468 108.786 177.452 108.768L177.473 108.792C177.244 108.516 176.755 108.517 176.612 108.873C176.799 110.234 177.719 111.52 178.149 112.852C178.468 113.664 179.902 113.406 179.525 112.463Z" fill="white"/>
<path d="M268.676 25.0024C268.225 22.2529 263.783 17.9824 260.925 18.8486C260.124 19.4295 261.177 20.5721 261.916 20.0994C264.045 20.7671 266.077 22.4608 266.877 24.5713C266.922 25.8415 268.695 26.5807 268.676 25.0024Z" fill="white"/>
<path d="M265.335 26.9893C264.767 24.6392 263.026 22.8579 260.978 21.6829C260.9 21.6458 260.817 21.6242 260.731 21.6195C260.645 21.6148 260.56 21.6269 260.479 21.6553C260.398 21.6837 260.323 21.7277 260.26 21.7849C260.196 21.8421 260.144 21.9113 260.107 21.9886C260.069 22.0659 260.048 22.1497 260.043 22.2353C260.038 22.3209 260.051 22.4066 260.079 22.4875C260.107 22.5684 260.151 22.6429 260.208 22.7068C260.266 22.7707 260.335 22.8227 260.412 22.8599L260.379 22.8426C261.231 23.2766 261.975 23.895 262.557 24.6528C263.139 25.4105 263.545 26.2886 263.746 27.2231C263.951 28.1361 265.593 28.0525 265.335 26.9893Z" fill="white"/>
<path d="M238.121 36.418C238.559 35.2828 236.331 36.4027 235.808 36.3207C234.445 36.8633 229.822 35.6939 229.881 36.4239C230.373 37.9941 236.845 37.1649 238.121 36.418Z" fill="white"/>
<path d="M237.117 39.3929C236.95 39.1074 236.616 39.1557 236.358 39.2866L236.409 39.268C234.343 39.8224 232.153 39.691 230.169 38.8934C230.113 38.8676 230.053 38.8531 229.992 38.8507C229.931 38.8484 229.87 38.8583 229.813 38.8799C229.756 38.9015 229.703 38.9342 229.659 38.9763C229.615 39.0184 229.579 39.0689 229.555 39.1249C229.458 39.9333 230.705 39.9634 231.261 40.1547C231.252 40.1535 231.242 40.1514 231.233 40.1484C232.167 40.3767 237.312 40.733 237.117 39.3929Z" fill="white"/>
<path d="M206.781 47.8953C207.712 46.9493 208.636 45.9171 209.261 44.742C209.034 43.1871 207.737 45.231 207.288 45.6513L207.342 45.6038C206.914 46.2951 205.161 46.9134 205.885 47.8393C206.002 47.9557 206.157 48.0256 206.322 48.0359C206.487 48.0462 206.65 47.9962 206.781 47.8953V47.8953Z" fill="white"/>
<path d="M203.859 46.4563C204.421 45.7558 206.096 44.4126 205.168 43.5501C204.927 43.4198 204.526 43.4321 204.393 43.7187C204.088 44.4661 203.465 44.996 202.878 45.5248C202.291 46.0537 203.311 46.9797 203.859 46.4563Z" fill="white"/>
<path d="M251.62 175.732C251.566 174.511 248.072 169.571 247.014 171.568C246.85 172.294 248.978 173.072 249.46 174.412C249.688 174.913 249.863 175.437 249.983 175.974C250.196 176.912 251.888 176.827 251.62 175.732Z" fill="black"/>
<path d="M324.721 165.419C326.498 163.835 331.408 156.79 329.179 154.744C329.136 154.711 329.086 154.687 329.033 154.676C328.98 154.664 328.924 154.665 328.872 154.679C328.819 154.692 328.77 154.718 328.728 154.753C328.687 154.788 328.654 154.833 328.633 154.883C328.611 154.933 328.602 154.987 328.604 155.042C328.607 155.096 328.623 155.149 328.649 155.196C328.676 155.244 328.713 155.285 328.758 155.316C328.803 155.346 328.854 155.366 328.908 155.374C328.423 161.825 321.035 168.23 314.46 167.74C311.312 167.647 308.313 166.407 305.311 165.813C303.571 166.831 305.961 167.843 306.968 168.023C306.923 168.008 306.876 167.995 306.833 167.979C312.962 170.018 319.844 170.309 324.721 165.419Z" fill="black"/>
<path d="M287.114 185.38C288.16 183.627 290.664 181.85 289.85 179.592C289.549 179.136 288.655 179.321 288.786 179.923C289.29 181.912 284.7 184.004 286.05 185.456C286.35 185.675 286.877 185.713 287.114 185.38Z" fill="black"/>
<path d="M310.981 109.075C310.606 107.275 307.804 108.764 306.579 108.807C306.486 108.832 306.401 108.877 306.328 108.94C306.255 109.002 306.197 109.079 306.157 109.166C306.118 109.254 306.098 109.348 306.1 109.444C306.101 109.54 306.124 109.634 306.166 109.72C306.987 110.927 308.901 109.517 310.137 109.748C310.238 109.766 310.341 109.762 310.44 109.737C310.539 109.711 310.631 109.665 310.711 109.602C310.79 109.538 310.856 109.458 310.902 109.367C310.949 109.276 310.976 109.177 310.981 109.075V109.075Z" fill="black"/>
<path d="M310.605 114.037C310.693 112.425 306.771 112.637 305.797 113.073C304.806 114.615 306.995 114.742 308.016 114.49C308.839 114.252 310.257 115.145 310.605 114.037Z" fill="black"/>
<path d="M265.11 159.995C264.959 159.14 265.538 157.682 264.648 157.2C263.485 157.217 264.096 159.092 263.945 159.856C263.935 160.509 265.059 160.722 265.11 159.995Z" fill="black"/>
<path d="M257.601 160.144C257.678 159.598 257.72 159.047 257.726 158.496V158.496C257.781 157.644 256.373 157.177 256.046 158.051C255.97 158.594 256.006 159.162 255.906 159.71C255.737 160.681 257.381 161.175 257.601 160.144Z" fill="black"/>
</g>
<defs>
<clipPath id="clip0_4575_33249">
<rect width="343" height="290" fill="white"/>
</clipPath>
</defs>
</svg>
