<svg width="16" height="16" viewBox="0 0 16 16" fill="none" xmlns="http://www.w3.org/2000/svg">
<path fill-rule="evenodd" clip-rule="evenodd" d="M4.04044 2.62639C3.64991 2.23587 3.01675 2.23587 2.62622 2.62639C2.2357 3.01691 2.2357 3.65008 2.62622 4.0406L6.58578 8.00016L2.62622 11.9597C2.2357 12.3502 2.2357 12.9834 2.62622 13.3739C3.01675 13.7645 3.64991 13.7645 4.04044 13.3739L7.99999 9.41438L11.9596 13.3739C12.3501 13.7645 12.9832 13.7645 13.3738 13.3739C13.7643 12.9834 13.7643 12.3502 13.3738 11.9597L9.41421 8.00016L13.3738 4.0406C13.7643 3.65008 13.7643 3.01691 13.3738 2.62639C12.9832 2.23587 12.3501 2.23587 11.9596 2.62639L7.99999 6.58595L4.04044 2.62639Z" fill="white"/>
</svg>
