<svg width="115" height="18" viewBox="0 0 115 18" fill="none" xmlns="http://www.w3.org/2000/svg">
<path d="M2.43362 13.9804C1.83029 13.9801 1.37786 13.8103 1.07632 13.4708C0.787351 13.1313 0.693251 12.66 0.79402 12.0567L2.32466 2.34749C2.41284 1.79448 2.62038 1.37977 2.94728 1.10336C3.27418 0.826957 3.71415 0.688852 4.2672 0.68905L8.58473 0.690594C9.62797 0.690968 10.4701 0.835815 11.111 1.12514C11.7519 1.40189 12.2168 1.78542 12.5058 2.27572C12.7947 2.75346 12.939 3.29398 12.9388 3.89731C12.9385 4.82743 12.6428 5.58776 12.0519 6.17831C11.4609 6.76885 10.6878 7.14565 9.73245 7.30871L9.73256 6.98819C10.5495 7.15188 11.1841 7.50405 11.6364 8.04469C12.1013 8.57276 12.3336 9.22645 12.3333 10.0057C12.3329 11.2878 11.88 12.2743 10.9748 12.9653C10.0695 13.6437 8.85021 13.9827 7.31676 13.9821L2.43362 13.9804ZM4.18794 11.4357L7.11028 11.4368C7.76388 11.437 8.24785 11.2926 8.56218 11.0036C8.87652 10.7147 9.03378 10.3062 9.03397 9.77831C9.03412 9.35096 8.88969 9.03668 8.60067 8.83547C8.31165 8.62168 7.89691 8.5147 7.35643 8.5145L4.66033 8.51354L4.18794 11.4357ZM5.05717 5.96841L7.60244 5.96932C8.26861 5.96956 8.77143 5.83148 9.1109 5.55508C9.46293 5.27868 9.63905 4.87024 9.63924 4.32977C9.63937 3.97783 9.50749 3.70754 9.2436 3.51891C8.99228 3.33028 8.57753 3.23586 7.99935 3.23565L5.49179 3.23476L5.05717 5.96841ZM16.803 14.1929C16.1494 14.1927 15.5838 14.0542 15.1063 13.7775C14.6413 13.5008 14.3084 13.0671 14.1075 12.4762C13.9192 11.8854 13.8943 11.125 14.0329 10.1949L14.6942 6.08498C14.7824 5.55711 14.9774 5.16753 15.2791 4.91625C15.5809 4.66497 15.9894 4.53943 16.5048 4.53961C17.083 4.53982 17.4977 4.69708 17.749 5.0114C18.0128 5.32573 18.1006 5.77825 18.0124 6.36898L17.4077 10.1395C17.3447 10.6297 17.3823 11.0005 17.5205 11.2519C17.6586 11.5034 17.9288 11.6292 18.3311 11.6293C18.8213 11.6295 19.2298 11.4537 19.5567 11.1018C19.8837 10.75 20.0975 10.2599 20.1983 9.63148L20.7652 6.08715C20.8534 5.55928 21.0483 5.1697 21.3501 4.91842C21.6518 4.66715 22.0604 4.5416 22.5757 4.54178C23.1413 4.54199 23.5498 4.69925 23.801 5.01357C24.0649 5.32789 24.1527 5.78042 24.0645 6.37114L23.0819 12.6114C22.9181 13.642 22.3146 14.1572 21.2714 14.1568C20.7434 14.1566 20.3601 14.0245 20.1214 13.7604C19.8827 13.4838 19.8074 13.0502 19.8956 12.4594L20.0468 11.4414L20.0277 12.271C19.6881 12.9244 19.2354 13.4082 18.6697 13.7222C18.1165 14.0362 17.4943 14.1931 16.803 14.1929ZM27.0128 17.5525C26.598 17.5524 26.2712 17.458 26.0325 17.2694C25.8063 17.0933 25.6807 16.8545 25.6556 16.5528C25.6432 16.2511 25.7376 15.9306 25.9388 15.5913L27.7309 12.6885L27.5419 14.0459L25.5083 6.76759C25.3828 6.32762 25.3641 5.94425 25.4522 5.61748C25.5528 5.27815 25.7352 5.01426 25.9992 4.82582C26.2632 4.63737 26.5963 4.54322 26.9986 4.54337C27.451 4.54353 27.7967 4.65049 28.0354 4.86425C28.2741 5.07802 28.4563 5.46773 28.5817 6.03339L29.6736 10.7849L29.0325 10.7847L31.9001 5.71406C32.1391 5.28679 32.3906 4.98522 32.6546 4.80934C32.9312 4.63347 33.2832 4.54561 33.7105 4.54577C34.1253 4.54592 34.4521 4.6403 34.6908 4.82893C34.9296 5.00498 35.0615 5.24384 35.0865 5.54551C35.1115 5.83462 35.0172 6.1551 34.8033 6.50696L28.842 16.3654C28.5905 16.7927 28.3327 17.0942 28.0687 17.2701C27.8047 17.4585 27.4527 17.5527 27.0128 17.5525ZM42.3638 14.1643C41.8108 14.1641 41.4086 13.988 41.1573 13.636C40.9061 13.284 40.8309 12.7812 40.9316 12.1276L42.4811 2.41842C42.5693 1.84027 42.7831 1.41299 43.1226 1.13659C43.4621 0.847615 43.9209 0.703233 44.4991 0.70344L48.4584 0.704856C49.9793 0.7054 51.1418 1.04519 51.946 1.72421C52.7628 2.39067 53.1709 3.31466 53.1705 4.49617C53.1701 5.53941 52.9436 6.39404 52.4909 7.06005C52.0381 7.72605 51.4158 8.21603 50.6238 8.52998C49.8318 8.84393 48.9268 9.00072 47.9087 9.00035L47.9088 8.66099L48.6064 8.66124C49.26 8.66147 49.7878 8.83763 50.1899 9.18971C50.592 9.54179 50.9124 10.0258 51.151 10.6418L51.6595 11.9806C51.8479 12.4332 51.9169 12.8228 51.8665 13.1496C51.8161 13.4764 51.6526 13.7277 51.376 13.9036C51.0995 14.0795 50.7161 14.1673 50.2259 14.1671C49.7608 14.167 49.3838 14.0474 49.0948 13.8085C48.8183 13.5696 48.5859 13.1924 48.3976 12.677L47.3804 9.99942C47.2549 9.64744 47.0853 9.40228 46.8716 9.26394C46.6706 9.11304 46.3878 9.03752 46.0233 9.03739L44.8921 9.03698L44.3629 12.4493C44.2747 13.0275 44.0609 13.4611 43.7214 13.75C43.382 14.0264 42.9294 14.1645 42.3638 14.1643ZM45.27 6.58612L47.7776 6.58702C48.4563 6.58726 48.9717 6.4429 49.3237 6.15393C49.6884 5.8524 49.8708 5.40626 49.871 4.8155C49.8712 4.3253 49.7079 3.96074 49.3812 3.7218C49.067 3.48288 48.5643 3.36329 47.873 3.36304L45.7802 3.36229L45.27 6.58612ZM58.6984 14.2079C57.7055 14.2075 56.8383 14.0312 56.0968 13.679C55.3553 13.3143 54.7773 12.805 54.3628 12.1513C53.9482 11.4975 53.7411 10.737 53.7414 9.86972C53.7418 8.80133 53.9747 7.86501 54.44 7.06074C54.9179 6.25648 55.5592 5.63454 56.3638 5.1949C57.1809 4.7427 58.086 4.51678 59.079 4.51713C59.8834 4.51742 60.5621 4.64964 61.1151 4.91379C61.6806 5.17795 62.1267 5.53633 62.4533 5.98894C62.7925 6.44155 63.0186 6.95697 63.1315 7.5352C63.2444 8.10086 63.263 8.68533 63.1874 9.28863C63.1496 9.60285 63.0615 9.81021 62.9232 9.91071C62.7849 9.99865 62.6027 10.0426 62.3764 10.0425L56.4752 10.0404L56.702 8.45674L60.8875 8.45824L60.5858 8.70323C60.6488 8.3136 60.63 7.96794 60.5296 7.66625C60.4417 7.36455 60.2721 7.13196 60.0208 6.96847C59.782 6.79242 59.4553 6.70431 59.0405 6.70417C58.6383 6.70402 58.2989 6.79189 58.0223 6.96776C57.7457 7.14363 57.5194 7.38236 57.3433 7.68396C57.1798 7.98556 57.0728 8.32489 57.0224 8.70195L56.8902 9.43721C56.7768 10.1788 56.9148 10.7507 57.3043 11.1531C57.6939 11.5428 58.2845 11.7379 59.0764 11.7382C59.3655 11.7383 59.686 11.707 60.038 11.6442C60.4025 11.5815 60.7168 11.4874 60.9808 11.3618C61.3202 11.2236 61.603 11.1923 61.8292 11.2678C62.068 11.3433 62.2439 11.4879 62.357 11.7016C62.47 11.9028 62.5139 12.129 62.4887 12.3804C62.4761 12.6318 62.3943 12.8769 62.2434 13.1156C62.0924 13.3418 61.8661 13.5177 61.5644 13.6433C61.1244 13.8442 60.653 13.9886 60.1502 14.0764C59.66 14.1642 59.1761 14.208 58.6984 14.2079ZM71.4177 17.5684C70.8898 17.5682 70.5065 17.3984 70.2678 17.0589C70.0291 16.7195 69.9539 16.2418 70.0421 15.626L70.5334 12.5153L70.7219 12.5153C70.3698 13.0557 69.9234 13.4766 69.3828 13.7781C68.8423 14.067 68.2577 14.2113 67.6293 14.2111C66.9254 14.2108 66.3158 14.0472 65.8006 13.7202C65.2854 13.3932 64.8834 12.928 64.5945 12.3246C64.3182 11.7086 64.1802 10.9921 64.1805 10.1751C64.1809 9.08159 64.376 8.10754 64.766 7.25298C65.1559 6.39841 65.7029 5.73243 66.407 5.25505C67.1236 4.76511 67.9533 4.52031 68.8959 4.52064C69.5495 4.52088 70.1277 4.67192 70.6303 4.97376C71.133 5.26303 71.4911 5.69051 71.7046 6.2562L71.5157 7.02914L71.6291 6.21847C71.7173 5.66545 71.906 5.25074 72.1952 4.97432C72.497 4.6979 72.9244 4.55979 73.4774 4.55999C73.9928 4.56017 74.3698 4.72999 74.6085 5.06945C74.8597 5.40891 74.9413 5.88657 74.8531 6.50243L73.3602 15.8911C73.2721 16.4567 73.0645 16.8777 72.7376 17.1541C72.4107 17.4305 71.9707 17.5686 71.4177 17.5684ZM69.0253 11.7417C69.4527 11.7419 69.8173 11.61 70.119 11.3462C70.4208 11.0823 70.6534 10.7305 70.817 10.2906C70.9805 9.83818 71.0624 9.32287 71.0626 8.74468C71.0628 8.17907 70.931 7.74538 70.6672 7.44363C70.4159 7.14187 70.064 6.99092 69.6115 6.99076C69.1842 6.9906 68.8133 7.11616 68.499 7.36743C68.1972 7.61871 67.9646 7.97057 67.801 8.423C67.6375 8.87543 67.5556 9.39703 67.5554 9.98778C67.5552 10.5534 67.687 10.9871 67.9508 11.2888C68.2147 11.5906 68.5728 11.7416 69.0253 11.7417ZM78.9249 14.2151C78.2713 14.2149 77.7058 14.0764 77.2282 13.7997C76.7633 13.523 76.4303 13.0893 76.2295 12.4984C76.0411 11.9076 76.0163 11.1472 76.1549 10.2171L76.8162 6.1072C76.9044 5.57932 77.0993 5.18975 77.4011 4.93847C77.7028 4.68719 78.1114 4.56165 78.6267 4.56183C79.2049 4.56204 79.6196 4.7193 79.8709 5.03362C80.1348 5.34795 80.2226 5.80047 80.1344 6.3912L79.5297 10.1617C79.4667 10.6519 79.5043 11.0227 79.6424 11.2742C79.7806 11.5256 80.0508 11.6514 80.453 11.6515C80.9432 11.6517 81.3518 11.4759 81.6787 11.1241C82.0056 10.7722 82.2195 10.2821 82.3203 9.65369L82.8871 6.10937C82.9753 5.5815 83.1703 5.19192 83.472 4.94064C83.7738 4.68937 84.1823 4.56382 84.6977 4.564C85.2633 4.56421 85.6717 4.72147 85.923 5.03579C86.1868 5.35011 86.2747 5.80264 86.1865 6.39336L85.2038 12.6336C85.0401 13.6643 84.4366 14.1794 83.3933 14.179C82.8654 14.1788 82.4821 14.0467 82.2434 13.7827C82.0047 13.5061 81.9294 13.0724 82.0176 12.4817L82.1688 11.4636L82.1496 12.2932C81.81 12.9467 81.3574 13.4304 80.7916 13.7444C80.2385 14.0585 79.6162 14.2154 78.9249 14.2151ZM92.1714 14.2199C91.1784 14.2195 90.3112 14.0432 89.5697 13.691C88.8283 13.3262 88.2503 12.817 87.8357 12.1632C87.4212 11.5095 87.2141 10.749 87.2144 9.88169C87.2148 8.81331 87.4476 7.87698 87.913 7.07272C88.3909 6.26846 89.0321 5.64651 89.8367 5.20687C90.6539 4.75467 91.559 4.52875 92.5519 4.52911C93.3564 4.52939 94.0351 4.66161 94.588 4.92576C95.1535 5.18992 95.5996 5.5483 95.9262 6.00091C96.2655 6.45353 96.4915 6.96895 96.6044 7.54717C96.7174 8.11283 96.736 8.6973 96.6604 9.3006C96.6225 9.61482 96.5345 9.82218 96.3962 9.92268C96.2579 10.0106 96.0756 10.0545 95.8494 10.0545L89.9481 10.0524L90.1749 8.46871L94.3605 8.47021L94.0587 8.7152C94.1217 8.32558 94.103 7.97992 94.0026 7.67822C93.9147 7.37652 93.7451 7.14393 93.4937 6.98044C93.255 6.80439 92.9282 6.71629 92.5134 6.71614C92.1112 6.71599 91.7718 6.80386 91.4952 6.97973C91.2187 7.1556 90.9923 7.39433 90.8162 7.69593C90.6527 7.99754 90.5458 8.33687 90.4954 8.71393L90.3631 9.44918C90.2497 10.1907 90.3878 10.7627 90.7773 11.165C91.1668 11.5548 91.7575 11.7498 92.5493 11.7501C92.8384 11.7502 93.159 11.7189 93.5109 11.6562C93.8755 11.5935 94.1897 11.4993 94.4537 11.3737C94.7931 11.2356 95.076 11.2043 95.3022 11.2798C95.541 11.3553 95.7169 11.4999 95.8299 11.7136C95.943 11.9147 95.9869 12.141 95.9617 12.3924C95.949 12.6438 95.8672 12.8888 95.7163 13.1276C95.5654 13.3538 95.3391 13.5297 95.0374 13.6553C94.5974 13.8562 94.126 14.0006 93.6232 14.0884C93.1329 14.1762 92.649 14.22 92.1714 14.2199ZM101.46 14.2232C100.882 14.223 100.317 14.1725 99.7636 14.0717C99.2106 13.971 98.7331 13.8451 98.3309 13.6941C97.9916 13.5683 97.7465 13.3923 97.5958 13.166C97.4576 12.9397 97.3948 12.7008 97.4075 12.4495C97.4202 12.1981 97.4956 11.9781 97.634 11.7897C97.7723 11.6012 97.9609 11.4693 98.1997 11.3939C98.4512 11.306 98.734 11.325 99.0481 11.4508C99.4377 11.6143 99.8399 11.7402 100.255 11.8283C100.669 11.9164 101.065 11.9606 101.442 11.9607C101.933 11.9609 102.291 11.8856 102.517 11.7348C102.743 11.5841 102.857 11.3956 102.857 11.1693C102.857 10.9934 102.794 10.8614 102.668 10.7733C102.555 10.6728 102.36 10.6036 102.084 10.5657L100.406 10.2823C99.6268 10.1564 99.0236 9.87963 98.5964 9.45212C98.1817 9.01205 97.9745 8.4715 97.9748 7.83047C97.975 7.25228 98.1448 6.71187 98.4844 6.20922C98.8365 5.70658 99.352 5.30455 100.031 5.00313C100.722 4.68914 101.583 4.53234 102.614 4.5327C102.991 4.53284 103.406 4.5707 103.858 4.64627C104.323 4.72185 104.744 4.84141 105.121 5.00495C105.461 5.13076 105.699 5.30682 105.838 5.53311C105.988 5.74684 106.051 5.97311 106.026 6.21192C106.013 6.45073 105.938 6.66438 105.799 6.85287C105.661 7.02879 105.466 7.15441 105.215 7.22974C104.963 7.30506 104.681 7.28611 104.366 7.17287C104.077 7.04707 103.757 6.95269 103.405 6.88972C103.066 6.81418 102.739 6.77636 102.425 6.77625C101.909 6.77606 101.532 6.85763 101.293 7.02094C101.054 7.17169 100.935 7.37275 100.935 7.62414C100.935 7.7624 100.979 7.88182 101.067 7.98241C101.167 8.083 101.331 8.15219 101.557 8.18997L103.235 8.45453C104.102 8.60567 104.749 8.89499 105.176 9.3225C105.604 9.75001 105.817 10.2843 105.817 10.9253C105.816 12.0063 105.42 12.8294 104.628 13.3947C103.836 13.9475 102.78 14.2236 101.46 14.2232ZM111.721 14.2268C110.766 14.2265 109.986 14.0565 109.383 13.717C108.78 13.3774 108.359 12.9059 108.121 12.3025C107.894 11.6991 107.838 11.0077 107.952 10.2285L108.443 7.21204L108.028 7.21189C107.613 7.21174 107.287 7.12364 107.048 6.94758C106.822 6.75896 106.709 6.49497 106.709 6.1556C106.709 5.70311 106.854 5.35751 107.143 5.11879C107.444 4.86752 107.853 4.74197 108.368 4.74216L108.84 4.74232L109.048 3.42263C109.136 2.90732 109.331 2.52403 109.632 2.27275C109.934 2.00891 110.343 1.87707 110.858 1.87726C111.436 1.87747 111.851 2.03473 112.102 2.34905C112.354 2.66337 112.435 3.11589 112.347 3.70662L112.196 4.74352L113.553 4.74401C113.968 4.74416 114.295 4.83226 114.533 5.00831C114.772 5.1718 114.892 5.42951 114.891 5.78145C114.891 6.18367 114.753 6.52299 114.476 6.79941C114.212 7.07584 113.848 7.21397 113.383 7.2138L111.799 7.21324L111.326 10.0977C111.251 10.613 111.314 10.9838 111.515 11.2102C111.728 11.4239 112.024 11.5308 112.401 11.531C112.589 11.5311 112.746 11.5185 112.872 11.4934C112.998 11.4558 113.136 11.437 113.287 11.437C113.526 11.4371 113.695 11.5 113.796 11.6258C113.909 11.7515 113.965 11.9966 113.965 12.3611C113.965 12.977 113.858 13.4043 113.644 13.6431C113.43 13.8818 113.16 14.0388 112.833 14.1141C112.657 14.1518 112.469 14.1768 112.268 14.1893C112.079 14.2144 111.897 14.2269 111.721 14.2268Z" fill="#072365"/>
</svg>
